M48
; DRILL file {KiCad 5.1.5-52549c5~86~ubuntu19.04.1} date Thu 21 May 2020 23:18:29 AEST
; FORMAT={-:-/ absolute / inch / decimal}
; #@! TF.CreationDate,2020-05-21T23:18:29+10:00
; #@! TF.GenerationSoftware,Kicad,Pcbnew,5.1.5-52549c5~86~ubuntu19.04.1
FMAT,2
INCH
T1C0.0157
T2C0.0394
%
G90
G05
T1
X3.943Y-3.4319
X3.9861Y-3.2627
X4.0824Y-3.2563
X4.1222Y-3.2556
X4.1399Y-3.3621
X4.25Y-3.3822
X6.2617Y-3.2539
X6.3002Y-3.3621
T2
X4.53Y-3.44
X4.63Y-3.44
X4.73Y-3.44
X4.83Y-3.44
X4.93Y-3.44
X5.61Y-2.94
X5.71Y-2.94
X5.81Y-2.94
X5.91Y-2.94
X6.01Y-2.94
X5.61Y-3.44
X5.71Y-3.44
X5.81Y-3.44
X5.91Y-3.44
X6.01Y-3.44
X6.61Y-2.94
X6.71Y-2.94
X6.81Y-2.94
X6.91Y-2.94
X7.01Y-2.94
X5.03Y-3.44
X5.13Y-3.44
X5.23Y-3.44
X5.33Y-3.44
X5.43Y-3.44
X5.03Y-2.94
X5.13Y-2.94
X5.23Y-2.94
X5.33Y-2.94
X5.43Y-2.94
X3.33Y-3.44
X3.43Y-3.44
X3.53Y-3.44
X3.63Y-3.44
X3.73Y-3.44
X3.33Y-2.94
X3.43Y-2.94
X3.53Y-2.94
X3.63Y-2.94
X3.73Y-2.94
X4.53Y-2.94
X4.63Y-2.94
X4.73Y-2.94
X4.83Y-2.94
X4.93Y-2.94
X6.61Y-3.44
X6.71Y-3.44
X6.81Y-3.44
X6.91Y-3.44
X7.01Y-3.44
T0
M30
