M48
; DRILL file {KiCad 5.1.5-52549c5~86~ubuntu19.04.1} date Tue 12 May 2020 21:37:56 AEST
; FORMAT={-:-/ absolute / inch / decimal}
; #@! TF.CreationDate,2020-05-12T21:37:56+10:00
; #@! TF.GenerationSoftware,Kicad,Pcbnew,5.1.5-52549c5~86~ubuntu19.04.1
FMAT,2
INCH
T1C0.0157
T2C0.0394
%
G90
G05
T1
X4.8342Y-2.8311
X4.9527Y-2.7727
X4.9877Y-2.9349
X4.9956Y-2.7725
X5.0369Y-2.7685
X5.0417Y-2.8722
X5.0782Y-2.7724
X5.3308Y-2.8761
X5.3392Y-2.7731
X5.3764Y-2.7522
X5.425Y-2.9203
X5.4622Y-2.7844
X6.3827Y-2.8228
X6.4524Y-2.773
X6.6944Y-2.9522
X6.7284Y-2.8957
X6.7998Y-2.9016
T2
X6.15Y-3.075
X6.25Y-3.075
X6.35Y-3.075
X6.45Y-3.075
X6.55Y-3.075
X6.65Y-3.075
X6.75Y-3.075
X6.85Y-3.075
X6.95Y-3.075
X7.05Y-3.075
X4.45Y-3.375
X4.55Y-3.375
X4.65Y-3.375
X4.75Y-3.375
X4.85Y-3.375
X4.95Y-3.375
X5.05Y-3.375
X5.15Y-3.375
X5.25Y-3.375
X5.35Y-3.375
X5.45Y-3.375
X5.55Y-3.375
X5.65Y-3.375
X5.75Y-3.375
X5.85Y-3.375
X6.15Y-3.375
X6.25Y-3.375
X6.35Y-3.375
X6.45Y-3.375
X6.55Y-3.375
X6.65Y-3.375
X6.75Y-3.375
X6.85Y-3.375
X6.95Y-3.375
X7.05Y-3.375
X4.45Y-3.075
X4.55Y-3.075
X4.65Y-3.075
X4.75Y-3.075
X4.85Y-3.075
X4.95Y-3.075
X5.05Y-3.075
X5.15Y-3.075
X5.25Y-3.075
X5.35Y-3.075
X5.45Y-3.075
X5.55Y-3.075
X5.65Y-3.075
X5.75Y-3.075
X5.85Y-3.075
T0
M30
