G04 #@! TF.GenerationSoftware,KiCad,Pcbnew,5.1.5-52549c5~86~ubuntu19.04.1*
G04 #@! TF.CreationDate,2020-05-12T21:37:58+10:00*
G04 #@! TF.ProjectId,ICM2_FrontPanel_Breakout,49434d32-5f46-4726-9f6e-7450616e656c,rev?*
G04 #@! TF.SameCoordinates,Original*
G04 #@! TF.FileFunction,Paste,Top*
G04 #@! TF.FilePolarity,Positive*
%FSLAX46Y46*%
G04 Gerber Fmt 4.6, Leading zero omitted, Abs format (unit mm)*
G04 Created by KiCad (PCBNEW 5.1.5-52549c5~86~ubuntu19.04.1) date 2020-05-12 21:37:58*
%MOMM*%
%LPD*%
G04 APERTURE LIST*
%ADD10R,0.300000X1.300000*%
%ADD11R,1.800000X2.200000*%
G04 APERTURE END LIST*
D10*
X162890000Y-71700000D03*
X163390000Y-71700000D03*
X163890000Y-71700000D03*
X164390000Y-71700000D03*
X164890000Y-71700000D03*
X165390000Y-71700000D03*
X165890000Y-71700000D03*
X166390000Y-71700000D03*
X166890000Y-71700000D03*
X167390000Y-71700000D03*
X167890000Y-71700000D03*
X168390000Y-71700000D03*
X168890000Y-71700000D03*
X169390000Y-71700000D03*
X169890000Y-71700000D03*
X170390000Y-71700000D03*
X170890000Y-71700000D03*
X171390000Y-71700000D03*
X171890000Y-71700000D03*
X172390000Y-71700000D03*
D11*
X174290000Y-68450000D03*
X160990000Y-68450000D03*
D10*
X123560000Y-71700000D03*
X124060000Y-71700000D03*
X124560000Y-71700000D03*
X125060000Y-71700000D03*
X125560000Y-71700000D03*
X126060000Y-71700000D03*
X126560000Y-71700000D03*
X127060000Y-71700000D03*
X127560000Y-71700000D03*
X128060000Y-71700000D03*
X128560000Y-71700000D03*
X129060000Y-71700000D03*
X129560000Y-71700000D03*
X130060000Y-71700000D03*
X130560000Y-71700000D03*
X131060000Y-71700000D03*
X131560000Y-71700000D03*
X132060000Y-71700000D03*
X132560000Y-71700000D03*
X133060000Y-71700000D03*
X133560000Y-71700000D03*
X134060000Y-71700000D03*
X134560000Y-71700000D03*
X135060000Y-71700000D03*
X135560000Y-71700000D03*
X136060000Y-71700000D03*
X136560000Y-71700000D03*
X137060000Y-71700000D03*
X137560000Y-71700000D03*
X138060000Y-71700000D03*
D11*
X139960000Y-68450000D03*
X121660000Y-68450000D03*
M02*
