G04 #@! TF.GenerationSoftware,KiCad,Pcbnew,5.1.5-52549c5~86~ubuntu19.04.1*
G04 #@! TF.CreationDate,2020-05-21T23:18:28+10:00*
G04 #@! TF.ProjectId,ICM2_FrontPanel_Breakout,49434d32-5f46-4726-9f6e-7450616e656c,rev?*
G04 #@! TF.SameCoordinates,Original*
G04 #@! TF.FileFunction,Paste,Top*
G04 #@! TF.FilePolarity,Positive*
%FSLAX46Y46*%
G04 Gerber Fmt 4.6, Leading zero omitted, Abs format (unit mm)*
G04 Created by KiCad (PCBNEW 5.1.5-52549c5~86~ubuntu19.04.1) date 2020-05-21 23:18:28*
%MOMM*%
%LPD*%
G04 APERTURE LIST*
%ADD10R,0.300000X1.300000*%
%ADD11R,1.800000X2.200000*%
G04 APERTURE END LIST*
D10*
X155524000Y-84146000D03*
X156024000Y-84146000D03*
X156524000Y-84146000D03*
X157024000Y-84146000D03*
X157524000Y-84146000D03*
X158024000Y-84146000D03*
X158524000Y-84146000D03*
X159024000Y-84146000D03*
X159524000Y-84146000D03*
X160024000Y-84146000D03*
X160524000Y-84146000D03*
X161024000Y-84146000D03*
X161524000Y-84146000D03*
X162024000Y-84146000D03*
X162524000Y-84146000D03*
X163024000Y-84146000D03*
X163524000Y-84146000D03*
X164024000Y-84146000D03*
X164524000Y-84146000D03*
X165024000Y-84146000D03*
D11*
X166924000Y-80896000D03*
X153624000Y-80896000D03*
D10*
X97652000Y-84146000D03*
X98152000Y-84146000D03*
X98652000Y-84146000D03*
X99152000Y-84146000D03*
X99652000Y-84146000D03*
X100152000Y-84146000D03*
X100652000Y-84146000D03*
X101152000Y-84146000D03*
X101652000Y-84146000D03*
X102152000Y-84146000D03*
X102652000Y-84146000D03*
X103152000Y-84146000D03*
X103652000Y-84146000D03*
X104152000Y-84146000D03*
X104652000Y-84146000D03*
X105152000Y-84146000D03*
X105652000Y-84146000D03*
X106152000Y-84146000D03*
X106652000Y-84146000D03*
X107152000Y-84146000D03*
X107652000Y-84146000D03*
X108152000Y-84146000D03*
X108652000Y-84146000D03*
X109152000Y-84146000D03*
X109652000Y-84146000D03*
X110152000Y-84146000D03*
X110652000Y-84146000D03*
X111152000Y-84146000D03*
X111652000Y-84146000D03*
X112152000Y-84146000D03*
D11*
X114052000Y-80896000D03*
X95752000Y-80896000D03*
M02*
