G04 #@! TF.GenerationSoftware,KiCad,Pcbnew,5.1.5-52549c5~86~ubuntu19.04.1*
G04 #@! TF.CreationDate,2020-05-21T23:18:28+10:00*
G04 #@! TF.ProjectId,ICM2_FrontPanel_Breakout,49434d32-5f46-4726-9f6e-7450616e656c,rev?*
G04 #@! TF.SameCoordinates,Original*
G04 #@! TF.FileFunction,Copper,L1,Top*
G04 #@! TF.FilePolarity,Positive*
%FSLAX46Y46*%
G04 Gerber Fmt 4.6, Leading zero omitted, Abs format (unit mm)*
G04 Created by KiCad (PCBNEW 5.1.5-52549c5~86~ubuntu19.04.1) date 2020-05-21 23:18:28*
%MOMM*%
%LPD*%
G04 APERTURE LIST*
%ADD10O,1.700000X1.700000*%
%ADD11C,1.700000*%
%ADD12R,0.300000X1.300000*%
%ADD13R,1.800000X2.200000*%
%ADD14C,0.800000*%
%ADD15C,0.250000*%
G04 APERTURE END LIST*
D10*
X142494000Y-74676000D03*
X145034000Y-74676000D03*
X147574000Y-74676000D03*
X150114000Y-74676000D03*
D11*
X152654000Y-74676000D03*
D10*
X142494000Y-87376000D03*
X145034000Y-87376000D03*
X147574000Y-87376000D03*
X150114000Y-87376000D03*
D11*
X152654000Y-87376000D03*
D10*
X167894000Y-74676000D03*
X170434000Y-74676000D03*
X172974000Y-74676000D03*
X175514000Y-74676000D03*
D11*
X178054000Y-74676000D03*
D10*
X167894000Y-87376000D03*
X170434000Y-87376000D03*
X172974000Y-87376000D03*
X175514000Y-87376000D03*
D11*
X178054000Y-87376000D03*
D10*
X127762000Y-87376000D03*
X130302000Y-87376000D03*
X132842000Y-87376000D03*
X135382000Y-87376000D03*
D11*
X137922000Y-87376000D03*
D10*
X115062000Y-87376000D03*
X117602000Y-87376000D03*
X120142000Y-87376000D03*
X122682000Y-87376000D03*
D11*
X125222000Y-87376000D03*
D10*
X84582000Y-87376000D03*
X87122000Y-87376000D03*
X89662000Y-87376000D03*
X92202000Y-87376000D03*
D11*
X94742000Y-87376000D03*
D10*
X84582000Y-74676000D03*
X87122000Y-74676000D03*
X89662000Y-74676000D03*
X92202000Y-74676000D03*
D11*
X94742000Y-74676000D03*
D10*
X115062000Y-74676000D03*
X117602000Y-74676000D03*
X120142000Y-74676000D03*
X122682000Y-74676000D03*
D11*
X125222000Y-74676000D03*
D10*
X127762000Y-74676000D03*
X130302000Y-74676000D03*
X132842000Y-74676000D03*
X135382000Y-74676000D03*
D11*
X137922000Y-74676000D03*
D12*
X155524000Y-84146000D03*
X156024000Y-84146000D03*
X156524000Y-84146000D03*
X157024000Y-84146000D03*
X157524000Y-84146000D03*
X158024000Y-84146000D03*
X158524000Y-84146000D03*
X159024000Y-84146000D03*
X159524000Y-84146000D03*
X160024000Y-84146000D03*
X160524000Y-84146000D03*
X161024000Y-84146000D03*
X161524000Y-84146000D03*
X162024000Y-84146000D03*
X162524000Y-84146000D03*
X163024000Y-84146000D03*
X163524000Y-84146000D03*
X164024000Y-84146000D03*
X164524000Y-84146000D03*
X165024000Y-84146000D03*
D13*
X166924000Y-80896000D03*
X153624000Y-80896000D03*
D12*
X97652000Y-84146000D03*
X98152000Y-84146000D03*
X98652000Y-84146000D03*
X99152000Y-84146000D03*
X99652000Y-84146000D03*
X100152000Y-84146000D03*
X100652000Y-84146000D03*
X101152000Y-84146000D03*
X101652000Y-84146000D03*
X102152000Y-84146000D03*
X102652000Y-84146000D03*
X103152000Y-84146000D03*
X103652000Y-84146000D03*
X104152000Y-84146000D03*
X104652000Y-84146000D03*
X105152000Y-84146000D03*
X105652000Y-84146000D03*
X106152000Y-84146000D03*
X106652000Y-84146000D03*
X107152000Y-84146000D03*
X107652000Y-84146000D03*
X108152000Y-84146000D03*
X108652000Y-84146000D03*
X109152000Y-84146000D03*
X109652000Y-84146000D03*
X110152000Y-84146000D03*
X110652000Y-84146000D03*
X111152000Y-84146000D03*
X111652000Y-84146000D03*
X112152000Y-84146000D03*
D13*
X114052000Y-80896000D03*
X95752000Y-80896000D03*
D14*
X105153100Y-85397000D03*
X100152000Y-87170400D03*
X101245800Y-82873300D03*
X107949400Y-85908400D03*
X103691800Y-82710500D03*
X104704100Y-82691600D03*
X159048100Y-82648600D03*
X160024000Y-85397600D03*
D15*
X85757300Y-74676000D02*
X85757300Y-75043300D01*
X85757300Y-75043300D02*
X88528300Y-77814300D01*
X88528300Y-77814300D02*
X100916500Y-77814300D01*
X100916500Y-77814300D02*
X105433200Y-82331000D01*
X105433200Y-82331000D02*
X105433200Y-82988300D01*
X105433200Y-82988300D02*
X105152000Y-83269500D01*
X105152000Y-83269500D02*
X105152000Y-84146000D01*
X84582000Y-74676000D02*
X85757300Y-74676000D01*
X105652000Y-84146000D02*
X105652000Y-85121300D01*
X105652000Y-85121300D02*
X105428800Y-85121300D01*
X105428800Y-85121300D02*
X105153100Y-85397000D01*
X89662000Y-74676000D02*
X90837300Y-74676000D01*
X106152000Y-84146000D02*
X106152000Y-82412900D01*
X106152000Y-82412900D02*
X100068500Y-76329400D01*
X100068500Y-76329400D02*
X92123400Y-76329400D01*
X92123400Y-76329400D02*
X90837300Y-75043300D01*
X90837300Y-75043300D02*
X90837300Y-74676000D01*
X106652000Y-83170700D02*
X106652000Y-82276000D01*
X106652000Y-82276000D02*
X100227300Y-75851300D01*
X100227300Y-75851300D02*
X94185200Y-75851300D01*
X94185200Y-75851300D02*
X93377300Y-75043400D01*
X93377300Y-75043400D02*
X93377300Y-74676000D01*
X92202000Y-74676000D02*
X93377300Y-74676000D01*
X106652000Y-84146000D02*
X106652000Y-83170700D01*
X107152000Y-84146000D02*
X107152000Y-82139100D01*
X107152000Y-82139100D02*
X99688900Y-74676000D01*
X99688900Y-74676000D02*
X94742000Y-74676000D01*
X113886700Y-74676000D02*
X113662800Y-74676000D01*
X113662800Y-74676000D02*
X107652000Y-80686800D01*
X107652000Y-80686800D02*
X107652000Y-84146000D01*
X115062000Y-74676000D02*
X113886700Y-74676000D01*
X116426700Y-74676000D02*
X116426700Y-75043400D01*
X116426700Y-75043400D02*
X115164000Y-76306100D01*
X115164000Y-76306100D02*
X112775400Y-76306100D01*
X112775400Y-76306100D02*
X108152000Y-80929500D01*
X108152000Y-80929500D02*
X108152000Y-83170700D01*
X108152000Y-84146000D02*
X108152000Y-83170700D01*
X117602000Y-74676000D02*
X116426700Y-74676000D01*
X118966700Y-74676000D02*
X118966700Y-75043300D01*
X118966700Y-75043300D02*
X117028500Y-76981500D01*
X117028500Y-76981500D02*
X112779300Y-76981500D01*
X112779300Y-76981500D02*
X108652000Y-81108800D01*
X108652000Y-81108800D02*
X108652000Y-84146000D01*
X120142000Y-74676000D02*
X118966700Y-74676000D01*
X121506700Y-74676000D02*
X121506700Y-75043300D01*
X121506700Y-75043300D02*
X119118100Y-77431900D01*
X119118100Y-77431900D02*
X112965800Y-77431900D01*
X112965800Y-77431900D02*
X109152000Y-81245700D01*
X109152000Y-81245700D02*
X109152000Y-84146000D01*
X122682000Y-74676000D02*
X121506700Y-74676000D01*
X125222000Y-74676000D02*
X121752200Y-78145800D01*
X121752200Y-78145800D02*
X112975100Y-78145800D01*
X112975100Y-78145800D02*
X109652000Y-81468900D01*
X109652000Y-81468900D02*
X109652000Y-84146000D01*
X127762000Y-74676000D02*
X126586700Y-74676000D01*
X110152000Y-84146000D02*
X110152000Y-81685300D01*
X110152000Y-81685300D02*
X112829400Y-79007900D01*
X112829400Y-79007900D02*
X122622100Y-79007900D01*
X122622100Y-79007900D02*
X126586700Y-75043300D01*
X126586700Y-75043300D02*
X126586700Y-74676000D01*
X130302000Y-74676000D02*
X129126700Y-74676000D01*
X110652000Y-84146000D02*
X110652000Y-81826100D01*
X110652000Y-81826100D02*
X113019800Y-79458300D01*
X113019800Y-79458300D02*
X124711700Y-79458300D01*
X124711700Y-79458300D02*
X129126700Y-75043300D01*
X129126700Y-75043300D02*
X129126700Y-74676000D01*
X131666700Y-74676000D02*
X131666700Y-75043300D01*
X131666700Y-75043300D02*
X123989600Y-82720400D01*
X123989600Y-82720400D02*
X111465400Y-82720400D01*
X111465400Y-82720400D02*
X111152100Y-83033700D01*
X111152100Y-83033700D02*
X111152100Y-83170700D01*
X111152100Y-83170700D02*
X111152000Y-83170700D01*
X111152000Y-84146000D02*
X111152000Y-83170700D01*
X132842000Y-74676000D02*
X131666700Y-74676000D01*
X135382000Y-74676000D02*
X134206700Y-74676000D01*
X111652000Y-84146000D02*
X111652000Y-83170700D01*
X111652000Y-83170700D02*
X126079300Y-83170700D01*
X126079300Y-83170700D02*
X134206700Y-75043300D01*
X134206700Y-75043300D02*
X134206700Y-74676000D01*
X112152000Y-84146000D02*
X128452000Y-84146000D01*
X128452000Y-84146000D02*
X137922000Y-74676000D01*
X85757300Y-87376000D02*
X85757300Y-87008700D01*
X85757300Y-87008700D02*
X87644700Y-85121300D01*
X87644700Y-85121300D02*
X97652000Y-85121300D01*
X84582000Y-87376000D02*
X85757300Y-87376000D01*
X97652000Y-84146000D02*
X97652000Y-85121300D01*
X98152000Y-84146000D02*
X98152000Y-83170700D01*
X98152000Y-83170700D02*
X87116100Y-83170700D01*
X87116100Y-83170700D02*
X83378200Y-86908600D01*
X83378200Y-86908600D02*
X83378200Y-87917000D01*
X83378200Y-87917000D02*
X84025300Y-88564100D01*
X84025300Y-88564100D02*
X85933900Y-88564100D01*
X85933900Y-88564100D02*
X87122000Y-87376000D01*
X90837300Y-87376000D02*
X90837300Y-87008700D01*
X90837300Y-87008700D02*
X92115300Y-85730700D01*
X92115300Y-85730700D02*
X97827400Y-85730700D01*
X97827400Y-85730700D02*
X98652000Y-84906100D01*
X98652000Y-84906100D02*
X98652000Y-84146000D01*
X89662000Y-87376000D02*
X90837300Y-87376000D01*
X92202000Y-87376000D02*
X93377300Y-87376000D01*
X99152000Y-84146000D02*
X99152000Y-85043000D01*
X99152000Y-85043000D02*
X97994300Y-86200700D01*
X97994300Y-86200700D02*
X94185200Y-86200700D01*
X94185200Y-86200700D02*
X93377300Y-87008600D01*
X93377300Y-87008600D02*
X93377300Y-87376000D01*
X94742000Y-87376000D02*
X97455900Y-87376000D01*
X97455900Y-87376000D02*
X99652000Y-85179900D01*
X99652000Y-85179900D02*
X99652000Y-85121300D01*
X99652000Y-84146000D02*
X99652000Y-85121300D01*
X100152000Y-84146000D02*
X100152000Y-87170400D01*
X100652000Y-85121300D02*
X100652000Y-85508200D01*
X100652000Y-85508200D02*
X103695100Y-88551300D01*
X103695100Y-88551300D02*
X115618800Y-88551300D01*
X115618800Y-88551300D02*
X116426700Y-87743400D01*
X116426700Y-87743400D02*
X116426700Y-87376000D01*
X117602000Y-87376000D02*
X116426700Y-87376000D01*
X100652000Y-84146000D02*
X100652000Y-85121300D01*
X101152000Y-85121300D02*
X101152000Y-85280500D01*
X101152000Y-85280500D02*
X103964200Y-88092700D01*
X103964200Y-88092700D02*
X112668400Y-88092700D01*
X112668400Y-88092700D02*
X114560400Y-86200700D01*
X114560400Y-86200700D02*
X118092700Y-86200700D01*
X118092700Y-86200700D02*
X118966700Y-87074700D01*
X118966700Y-87074700D02*
X118966700Y-87376000D01*
X120142000Y-87376000D02*
X118966700Y-87376000D01*
X101152000Y-84146000D02*
X101152000Y-85121300D01*
X101652000Y-84146000D02*
X101652000Y-83170700D01*
X101652000Y-83170700D02*
X101543200Y-83170700D01*
X101543200Y-83170700D02*
X101245800Y-82873300D01*
X102152000Y-84146000D02*
X102152000Y-85627500D01*
X102152000Y-85627500D02*
X104166900Y-87642400D01*
X104166900Y-87642400D02*
X112267500Y-87642400D01*
X112267500Y-87642400D02*
X114173900Y-85736000D01*
X114173900Y-85736000D02*
X123582000Y-85736000D01*
X123582000Y-85736000D02*
X125222000Y-87376000D01*
X126586700Y-87376000D02*
X126586700Y-87008600D01*
X126586700Y-87008600D02*
X124863800Y-85285700D01*
X124863800Y-85285700D02*
X113802200Y-85285700D01*
X113802200Y-85285700D02*
X111942600Y-87145300D01*
X111942600Y-87145300D02*
X104360600Y-87145300D01*
X104360600Y-87145300D02*
X102652000Y-85436700D01*
X102652000Y-85436700D02*
X102652000Y-84146000D01*
X127762000Y-87376000D02*
X126586700Y-87376000D01*
X129126700Y-87376000D02*
X129126700Y-87008600D01*
X129126700Y-87008600D02*
X126953500Y-84835400D01*
X126953500Y-84835400D02*
X113432100Y-84835400D01*
X113432100Y-84835400D02*
X111624000Y-86643500D01*
X111624000Y-86643500D02*
X104525700Y-86643500D01*
X104525700Y-86643500D02*
X103152000Y-85269800D01*
X103152000Y-85269800D02*
X103152000Y-84146000D01*
X130302000Y-87376000D02*
X129126700Y-87376000D01*
X103652000Y-85121300D02*
X104685400Y-86154700D01*
X104685400Y-86154700D02*
X107703100Y-86154700D01*
X107703100Y-86154700D02*
X107949400Y-85908400D01*
X103652000Y-84146000D02*
X103652000Y-85121300D01*
X104152000Y-83170700D02*
X103691800Y-82710500D01*
X104152000Y-84146000D02*
X104152000Y-83170700D01*
X104652000Y-83170700D02*
X104652000Y-82743700D01*
X104652000Y-82743700D02*
X104704100Y-82691600D01*
X104652000Y-84146000D02*
X104652000Y-83170700D01*
X142494000Y-87376000D02*
X143669300Y-87376000D01*
X155524000Y-84146000D02*
X146532000Y-84146000D01*
X146532000Y-84146000D02*
X143669300Y-87008700D01*
X143669300Y-87008700D02*
X143669300Y-87376000D01*
X145034000Y-87376000D02*
X146209300Y-87376000D01*
X156024000Y-84146000D02*
X156024000Y-85121300D01*
X156024000Y-85121300D02*
X148096700Y-85121300D01*
X148096700Y-85121300D02*
X146209300Y-87008700D01*
X146209300Y-87008700D02*
X146209300Y-87376000D01*
X148749300Y-87376000D02*
X148749300Y-87008600D01*
X148749300Y-87008600D02*
X150186300Y-85571600D01*
X150186300Y-85571600D02*
X156210600Y-85571600D01*
X156210600Y-85571600D02*
X156524000Y-85258200D01*
X156524000Y-85258200D02*
X156524000Y-85121300D01*
X147574000Y-87376000D02*
X148749300Y-87376000D01*
X156524000Y-84146000D02*
X156524000Y-85121300D01*
X151289300Y-87376000D02*
X151289300Y-87003800D01*
X151289300Y-87003800D02*
X152271200Y-86021900D01*
X152271200Y-86021900D02*
X156397200Y-86021900D01*
X156397200Y-86021900D02*
X157024000Y-85395100D01*
X157024000Y-85395100D02*
X157024000Y-84146000D01*
X150114000Y-87376000D02*
X151289300Y-87376000D01*
X152654000Y-87376000D02*
X155680000Y-87376000D01*
X155680000Y-87376000D02*
X157524000Y-85532000D01*
X157524000Y-85532000D02*
X157524000Y-85121300D01*
X157524000Y-84146000D02*
X157524000Y-85121300D01*
X158024000Y-84146000D02*
X158024000Y-83361200D01*
X158024000Y-83361200D02*
X157196500Y-82533700D01*
X157196500Y-82533700D02*
X151159700Y-82533700D01*
X151159700Y-82533700D02*
X143669300Y-75043300D01*
X143669300Y-75043300D02*
X143669300Y-74676000D01*
X142494000Y-74676000D02*
X143669300Y-74676000D01*
X146209300Y-74676000D02*
X146209300Y-75043400D01*
X146209300Y-75043400D02*
X147017200Y-75851300D01*
X147017200Y-75851300D02*
X151204600Y-75851300D01*
X151204600Y-75851300D02*
X158524000Y-83170700D01*
X145034000Y-74676000D02*
X146209300Y-74676000D01*
X158524000Y-84146000D02*
X158524000Y-83170700D01*
X159024000Y-84146000D02*
X159024000Y-83170700D01*
X159024000Y-83170700D02*
X159048100Y-83146600D01*
X159048100Y-83146600D02*
X159048100Y-82648600D01*
X150114000Y-74676000D02*
X151289300Y-74676000D01*
X159524000Y-84146000D02*
X159524000Y-83198600D01*
X159524000Y-83198600D02*
X159773500Y-82949100D01*
X159773500Y-82949100D02*
X159773500Y-82264400D01*
X159773500Y-82264400D02*
X156570200Y-79061100D01*
X156570200Y-79061100D02*
X155375800Y-79061100D01*
X155375800Y-79061100D02*
X151289300Y-74974600D01*
X151289300Y-74974600D02*
X151289300Y-74676000D01*
X160024000Y-85121300D02*
X160024000Y-85397600D01*
X160024000Y-84146000D02*
X160024000Y-85121300D01*
X160524000Y-84146000D02*
X160524000Y-82046000D01*
X160524000Y-82046000D02*
X167894000Y-74676000D01*
X169258700Y-74676000D02*
X169258700Y-75043400D01*
X169258700Y-75043400D02*
X168450800Y-75851300D01*
X168450800Y-75851300D02*
X168079700Y-75851300D01*
X168079700Y-75851300D02*
X161024000Y-82907000D01*
X161024000Y-82907000D02*
X161024000Y-83170700D01*
X161024000Y-84146000D02*
X161024000Y-83170700D01*
X170434000Y-74676000D02*
X169258700Y-74676000D01*
X172974000Y-74676000D02*
X171798700Y-74676000D01*
X161524000Y-84146000D02*
X161524000Y-83170700D01*
X161524000Y-83170700D02*
X167564000Y-77130700D01*
X167564000Y-77130700D02*
X169711300Y-77130700D01*
X169711300Y-77130700D02*
X171798700Y-75043300D01*
X171798700Y-75043300D02*
X171798700Y-74676000D01*
X175514000Y-74676000D02*
X176689300Y-74676000D01*
X162024000Y-84146000D02*
X162024000Y-85169700D01*
X162024000Y-85169700D02*
X165426100Y-88571800D01*
X165426100Y-88571800D02*
X178556500Y-88571800D01*
X178556500Y-88571800D02*
X179257800Y-87870500D01*
X179257800Y-87870500D02*
X179257800Y-74211900D01*
X179257800Y-74211900D02*
X178546600Y-73500700D01*
X178546600Y-73500700D02*
X177497200Y-73500700D01*
X177497200Y-73500700D02*
X176689300Y-74308600D01*
X176689300Y-74308600D02*
X176689300Y-74676000D01*
X162524000Y-84146000D02*
X162524000Y-83170700D01*
X162524000Y-83170700D02*
X169559300Y-83170700D01*
X169559300Y-83170700D02*
X178054000Y-74676000D01*
X163024000Y-84146000D02*
X163024000Y-85532000D01*
X163024000Y-85532000D02*
X164868000Y-87376000D01*
X164868000Y-87376000D02*
X167894000Y-87376000D01*
X163524000Y-84146000D02*
X163524000Y-85395100D01*
X163524000Y-85395100D02*
X164329600Y-86200700D01*
X164329600Y-86200700D02*
X168455600Y-86200700D01*
X168455600Y-86200700D02*
X169258700Y-87003800D01*
X169258700Y-87003800D02*
X169258700Y-87376000D01*
X170434000Y-87376000D02*
X169258700Y-87376000D01*
X164024000Y-85121300D02*
X164024000Y-85258200D01*
X164024000Y-85258200D02*
X164337400Y-85571600D01*
X164337400Y-85571600D02*
X170361600Y-85571600D01*
X170361600Y-85571600D02*
X171798700Y-87008700D01*
X171798700Y-87008700D02*
X171798700Y-87376000D01*
X172974000Y-87376000D02*
X171798700Y-87376000D01*
X164024000Y-84146000D02*
X164024000Y-85121300D01*
X175514000Y-87376000D02*
X174338700Y-87376000D01*
X164524000Y-84146000D02*
X164524000Y-85121300D01*
X164524000Y-85121300D02*
X172451300Y-85121300D01*
X172451300Y-85121300D02*
X174338700Y-87008700D01*
X174338700Y-87008700D02*
X174338700Y-87376000D01*
X165024000Y-84146000D02*
X174824000Y-84146000D01*
X174824000Y-84146000D02*
X178054000Y-87376000D01*
M02*
