G04 #@! TF.GenerationSoftware,KiCad,Pcbnew,5.1.5-52549c5~86~ubuntu19.04.1*
G04 #@! TF.CreationDate,2020-05-21T23:18:28+10:00*
G04 #@! TF.ProjectId,ICM2_FrontPanel_Breakout,49434d32-5f46-4726-9f6e-7450616e656c,rev?*
G04 #@! TF.SameCoordinates,Original*
G04 #@! TF.FileFunction,Soldermask,Bot*
G04 #@! TF.FilePolarity,Negative*
%FSLAX46Y46*%
G04 Gerber Fmt 4.6, Leading zero omitted, Abs format (unit mm)*
G04 Created by KiCad (PCBNEW 5.1.5-52549c5~86~ubuntu19.04.1) date 2020-05-21 23:18:28*
%MOMM*%
%LPD*%
G04 APERTURE LIST*
%ADD10C,0.100000*%
G04 APERTURE END LIST*
D10*
G36*
X94855512Y-86479927D02*
G01*
X95004812Y-86509624D01*
X95168784Y-86577544D01*
X95316354Y-86676147D01*
X95441853Y-86801646D01*
X95540456Y-86949216D01*
X95608376Y-87113188D01*
X95643000Y-87287259D01*
X95643000Y-87464741D01*
X95608376Y-87638812D01*
X95540456Y-87802784D01*
X95441853Y-87950354D01*
X95316354Y-88075853D01*
X95168784Y-88174456D01*
X95004812Y-88242376D01*
X94855512Y-88272073D01*
X94830742Y-88277000D01*
X94653258Y-88277000D01*
X94628488Y-88272073D01*
X94479188Y-88242376D01*
X94315216Y-88174456D01*
X94167646Y-88075853D01*
X94042147Y-87950354D01*
X93943544Y-87802784D01*
X93875624Y-87638812D01*
X93841000Y-87464741D01*
X93841000Y-87287259D01*
X93875624Y-87113188D01*
X93943544Y-86949216D01*
X94042147Y-86801646D01*
X94167646Y-86676147D01*
X94315216Y-86577544D01*
X94479188Y-86509624D01*
X94628488Y-86479927D01*
X94653258Y-86475000D01*
X94830742Y-86475000D01*
X94855512Y-86479927D01*
G37*
G36*
X132955512Y-86479927D02*
G01*
X133104812Y-86509624D01*
X133268784Y-86577544D01*
X133416354Y-86676147D01*
X133541853Y-86801646D01*
X133640456Y-86949216D01*
X133708376Y-87113188D01*
X133743000Y-87287259D01*
X133743000Y-87464741D01*
X133708376Y-87638812D01*
X133640456Y-87802784D01*
X133541853Y-87950354D01*
X133416354Y-88075853D01*
X133268784Y-88174456D01*
X133104812Y-88242376D01*
X132955512Y-88272073D01*
X132930742Y-88277000D01*
X132753258Y-88277000D01*
X132728488Y-88272073D01*
X132579188Y-88242376D01*
X132415216Y-88174456D01*
X132267646Y-88075853D01*
X132142147Y-87950354D01*
X132043544Y-87802784D01*
X131975624Y-87638812D01*
X131941000Y-87464741D01*
X131941000Y-87287259D01*
X131975624Y-87113188D01*
X132043544Y-86949216D01*
X132142147Y-86801646D01*
X132267646Y-86676147D01*
X132415216Y-86577544D01*
X132579188Y-86509624D01*
X132728488Y-86479927D01*
X132753258Y-86475000D01*
X132930742Y-86475000D01*
X132955512Y-86479927D01*
G37*
G36*
X168007512Y-86479927D02*
G01*
X168156812Y-86509624D01*
X168320784Y-86577544D01*
X168468354Y-86676147D01*
X168593853Y-86801646D01*
X168692456Y-86949216D01*
X168760376Y-87113188D01*
X168795000Y-87287259D01*
X168795000Y-87464741D01*
X168760376Y-87638812D01*
X168692456Y-87802784D01*
X168593853Y-87950354D01*
X168468354Y-88075853D01*
X168320784Y-88174456D01*
X168156812Y-88242376D01*
X168007512Y-88272073D01*
X167982742Y-88277000D01*
X167805258Y-88277000D01*
X167780488Y-88272073D01*
X167631188Y-88242376D01*
X167467216Y-88174456D01*
X167319646Y-88075853D01*
X167194147Y-87950354D01*
X167095544Y-87802784D01*
X167027624Y-87638812D01*
X166993000Y-87464741D01*
X166993000Y-87287259D01*
X167027624Y-87113188D01*
X167095544Y-86949216D01*
X167194147Y-86801646D01*
X167319646Y-86676147D01*
X167467216Y-86577544D01*
X167631188Y-86509624D01*
X167780488Y-86479927D01*
X167805258Y-86475000D01*
X167982742Y-86475000D01*
X168007512Y-86479927D01*
G37*
G36*
X170547512Y-86479927D02*
G01*
X170696812Y-86509624D01*
X170860784Y-86577544D01*
X171008354Y-86676147D01*
X171133853Y-86801646D01*
X171232456Y-86949216D01*
X171300376Y-87113188D01*
X171335000Y-87287259D01*
X171335000Y-87464741D01*
X171300376Y-87638812D01*
X171232456Y-87802784D01*
X171133853Y-87950354D01*
X171008354Y-88075853D01*
X170860784Y-88174456D01*
X170696812Y-88242376D01*
X170547512Y-88272073D01*
X170522742Y-88277000D01*
X170345258Y-88277000D01*
X170320488Y-88272073D01*
X170171188Y-88242376D01*
X170007216Y-88174456D01*
X169859646Y-88075853D01*
X169734147Y-87950354D01*
X169635544Y-87802784D01*
X169567624Y-87638812D01*
X169533000Y-87464741D01*
X169533000Y-87287259D01*
X169567624Y-87113188D01*
X169635544Y-86949216D01*
X169734147Y-86801646D01*
X169859646Y-86676147D01*
X170007216Y-86577544D01*
X170171188Y-86509624D01*
X170320488Y-86479927D01*
X170345258Y-86475000D01*
X170522742Y-86475000D01*
X170547512Y-86479927D01*
G37*
G36*
X173087512Y-86479927D02*
G01*
X173236812Y-86509624D01*
X173400784Y-86577544D01*
X173548354Y-86676147D01*
X173673853Y-86801646D01*
X173772456Y-86949216D01*
X173840376Y-87113188D01*
X173875000Y-87287259D01*
X173875000Y-87464741D01*
X173840376Y-87638812D01*
X173772456Y-87802784D01*
X173673853Y-87950354D01*
X173548354Y-88075853D01*
X173400784Y-88174456D01*
X173236812Y-88242376D01*
X173087512Y-88272073D01*
X173062742Y-88277000D01*
X172885258Y-88277000D01*
X172860488Y-88272073D01*
X172711188Y-88242376D01*
X172547216Y-88174456D01*
X172399646Y-88075853D01*
X172274147Y-87950354D01*
X172175544Y-87802784D01*
X172107624Y-87638812D01*
X172073000Y-87464741D01*
X172073000Y-87287259D01*
X172107624Y-87113188D01*
X172175544Y-86949216D01*
X172274147Y-86801646D01*
X172399646Y-86676147D01*
X172547216Y-86577544D01*
X172711188Y-86509624D01*
X172860488Y-86479927D01*
X172885258Y-86475000D01*
X173062742Y-86475000D01*
X173087512Y-86479927D01*
G37*
G36*
X178167512Y-86479927D02*
G01*
X178316812Y-86509624D01*
X178480784Y-86577544D01*
X178628354Y-86676147D01*
X178753853Y-86801646D01*
X178852456Y-86949216D01*
X178920376Y-87113188D01*
X178955000Y-87287259D01*
X178955000Y-87464741D01*
X178920376Y-87638812D01*
X178852456Y-87802784D01*
X178753853Y-87950354D01*
X178628354Y-88075853D01*
X178480784Y-88174456D01*
X178316812Y-88242376D01*
X178167512Y-88272073D01*
X178142742Y-88277000D01*
X177965258Y-88277000D01*
X177940488Y-88272073D01*
X177791188Y-88242376D01*
X177627216Y-88174456D01*
X177479646Y-88075853D01*
X177354147Y-87950354D01*
X177255544Y-87802784D01*
X177187624Y-87638812D01*
X177153000Y-87464741D01*
X177153000Y-87287259D01*
X177187624Y-87113188D01*
X177255544Y-86949216D01*
X177354147Y-86801646D01*
X177479646Y-86676147D01*
X177627216Y-86577544D01*
X177791188Y-86509624D01*
X177940488Y-86479927D01*
X177965258Y-86475000D01*
X178142742Y-86475000D01*
X178167512Y-86479927D01*
G37*
G36*
X152767512Y-86479927D02*
G01*
X152916812Y-86509624D01*
X153080784Y-86577544D01*
X153228354Y-86676147D01*
X153353853Y-86801646D01*
X153452456Y-86949216D01*
X153520376Y-87113188D01*
X153555000Y-87287259D01*
X153555000Y-87464741D01*
X153520376Y-87638812D01*
X153452456Y-87802784D01*
X153353853Y-87950354D01*
X153228354Y-88075853D01*
X153080784Y-88174456D01*
X152916812Y-88242376D01*
X152767512Y-88272073D01*
X152742742Y-88277000D01*
X152565258Y-88277000D01*
X152540488Y-88272073D01*
X152391188Y-88242376D01*
X152227216Y-88174456D01*
X152079646Y-88075853D01*
X151954147Y-87950354D01*
X151855544Y-87802784D01*
X151787624Y-87638812D01*
X151753000Y-87464741D01*
X151753000Y-87287259D01*
X151787624Y-87113188D01*
X151855544Y-86949216D01*
X151954147Y-86801646D01*
X152079646Y-86676147D01*
X152227216Y-86577544D01*
X152391188Y-86509624D01*
X152540488Y-86479927D01*
X152565258Y-86475000D01*
X152742742Y-86475000D01*
X152767512Y-86479927D01*
G37*
G36*
X150227512Y-86479927D02*
G01*
X150376812Y-86509624D01*
X150540784Y-86577544D01*
X150688354Y-86676147D01*
X150813853Y-86801646D01*
X150912456Y-86949216D01*
X150980376Y-87113188D01*
X151015000Y-87287259D01*
X151015000Y-87464741D01*
X150980376Y-87638812D01*
X150912456Y-87802784D01*
X150813853Y-87950354D01*
X150688354Y-88075853D01*
X150540784Y-88174456D01*
X150376812Y-88242376D01*
X150227512Y-88272073D01*
X150202742Y-88277000D01*
X150025258Y-88277000D01*
X150000488Y-88272073D01*
X149851188Y-88242376D01*
X149687216Y-88174456D01*
X149539646Y-88075853D01*
X149414147Y-87950354D01*
X149315544Y-87802784D01*
X149247624Y-87638812D01*
X149213000Y-87464741D01*
X149213000Y-87287259D01*
X149247624Y-87113188D01*
X149315544Y-86949216D01*
X149414147Y-86801646D01*
X149539646Y-86676147D01*
X149687216Y-86577544D01*
X149851188Y-86509624D01*
X150000488Y-86479927D01*
X150025258Y-86475000D01*
X150202742Y-86475000D01*
X150227512Y-86479927D01*
G37*
G36*
X147687512Y-86479927D02*
G01*
X147836812Y-86509624D01*
X148000784Y-86577544D01*
X148148354Y-86676147D01*
X148273853Y-86801646D01*
X148372456Y-86949216D01*
X148440376Y-87113188D01*
X148475000Y-87287259D01*
X148475000Y-87464741D01*
X148440376Y-87638812D01*
X148372456Y-87802784D01*
X148273853Y-87950354D01*
X148148354Y-88075853D01*
X148000784Y-88174456D01*
X147836812Y-88242376D01*
X147687512Y-88272073D01*
X147662742Y-88277000D01*
X147485258Y-88277000D01*
X147460488Y-88272073D01*
X147311188Y-88242376D01*
X147147216Y-88174456D01*
X146999646Y-88075853D01*
X146874147Y-87950354D01*
X146775544Y-87802784D01*
X146707624Y-87638812D01*
X146673000Y-87464741D01*
X146673000Y-87287259D01*
X146707624Y-87113188D01*
X146775544Y-86949216D01*
X146874147Y-86801646D01*
X146999646Y-86676147D01*
X147147216Y-86577544D01*
X147311188Y-86509624D01*
X147460488Y-86479927D01*
X147485258Y-86475000D01*
X147662742Y-86475000D01*
X147687512Y-86479927D01*
G37*
G36*
X145147512Y-86479927D02*
G01*
X145296812Y-86509624D01*
X145460784Y-86577544D01*
X145608354Y-86676147D01*
X145733853Y-86801646D01*
X145832456Y-86949216D01*
X145900376Y-87113188D01*
X145935000Y-87287259D01*
X145935000Y-87464741D01*
X145900376Y-87638812D01*
X145832456Y-87802784D01*
X145733853Y-87950354D01*
X145608354Y-88075853D01*
X145460784Y-88174456D01*
X145296812Y-88242376D01*
X145147512Y-88272073D01*
X145122742Y-88277000D01*
X144945258Y-88277000D01*
X144920488Y-88272073D01*
X144771188Y-88242376D01*
X144607216Y-88174456D01*
X144459646Y-88075853D01*
X144334147Y-87950354D01*
X144235544Y-87802784D01*
X144167624Y-87638812D01*
X144133000Y-87464741D01*
X144133000Y-87287259D01*
X144167624Y-87113188D01*
X144235544Y-86949216D01*
X144334147Y-86801646D01*
X144459646Y-86676147D01*
X144607216Y-86577544D01*
X144771188Y-86509624D01*
X144920488Y-86479927D01*
X144945258Y-86475000D01*
X145122742Y-86475000D01*
X145147512Y-86479927D01*
G37*
G36*
X142607512Y-86479927D02*
G01*
X142756812Y-86509624D01*
X142920784Y-86577544D01*
X143068354Y-86676147D01*
X143193853Y-86801646D01*
X143292456Y-86949216D01*
X143360376Y-87113188D01*
X143395000Y-87287259D01*
X143395000Y-87464741D01*
X143360376Y-87638812D01*
X143292456Y-87802784D01*
X143193853Y-87950354D01*
X143068354Y-88075853D01*
X142920784Y-88174456D01*
X142756812Y-88242376D01*
X142607512Y-88272073D01*
X142582742Y-88277000D01*
X142405258Y-88277000D01*
X142380488Y-88272073D01*
X142231188Y-88242376D01*
X142067216Y-88174456D01*
X141919646Y-88075853D01*
X141794147Y-87950354D01*
X141695544Y-87802784D01*
X141627624Y-87638812D01*
X141593000Y-87464741D01*
X141593000Y-87287259D01*
X141627624Y-87113188D01*
X141695544Y-86949216D01*
X141794147Y-86801646D01*
X141919646Y-86676147D01*
X142067216Y-86577544D01*
X142231188Y-86509624D01*
X142380488Y-86479927D01*
X142405258Y-86475000D01*
X142582742Y-86475000D01*
X142607512Y-86479927D01*
G37*
G36*
X127875512Y-86479927D02*
G01*
X128024812Y-86509624D01*
X128188784Y-86577544D01*
X128336354Y-86676147D01*
X128461853Y-86801646D01*
X128560456Y-86949216D01*
X128628376Y-87113188D01*
X128663000Y-87287259D01*
X128663000Y-87464741D01*
X128628376Y-87638812D01*
X128560456Y-87802784D01*
X128461853Y-87950354D01*
X128336354Y-88075853D01*
X128188784Y-88174456D01*
X128024812Y-88242376D01*
X127875512Y-88272073D01*
X127850742Y-88277000D01*
X127673258Y-88277000D01*
X127648488Y-88272073D01*
X127499188Y-88242376D01*
X127335216Y-88174456D01*
X127187646Y-88075853D01*
X127062147Y-87950354D01*
X126963544Y-87802784D01*
X126895624Y-87638812D01*
X126861000Y-87464741D01*
X126861000Y-87287259D01*
X126895624Y-87113188D01*
X126963544Y-86949216D01*
X127062147Y-86801646D01*
X127187646Y-86676147D01*
X127335216Y-86577544D01*
X127499188Y-86509624D01*
X127648488Y-86479927D01*
X127673258Y-86475000D01*
X127850742Y-86475000D01*
X127875512Y-86479927D01*
G37*
G36*
X130415512Y-86479927D02*
G01*
X130564812Y-86509624D01*
X130728784Y-86577544D01*
X130876354Y-86676147D01*
X131001853Y-86801646D01*
X131100456Y-86949216D01*
X131168376Y-87113188D01*
X131203000Y-87287259D01*
X131203000Y-87464741D01*
X131168376Y-87638812D01*
X131100456Y-87802784D01*
X131001853Y-87950354D01*
X130876354Y-88075853D01*
X130728784Y-88174456D01*
X130564812Y-88242376D01*
X130415512Y-88272073D01*
X130390742Y-88277000D01*
X130213258Y-88277000D01*
X130188488Y-88272073D01*
X130039188Y-88242376D01*
X129875216Y-88174456D01*
X129727646Y-88075853D01*
X129602147Y-87950354D01*
X129503544Y-87802784D01*
X129435624Y-87638812D01*
X129401000Y-87464741D01*
X129401000Y-87287259D01*
X129435624Y-87113188D01*
X129503544Y-86949216D01*
X129602147Y-86801646D01*
X129727646Y-86676147D01*
X129875216Y-86577544D01*
X130039188Y-86509624D01*
X130188488Y-86479927D01*
X130213258Y-86475000D01*
X130390742Y-86475000D01*
X130415512Y-86479927D01*
G37*
G36*
X135495512Y-86479927D02*
G01*
X135644812Y-86509624D01*
X135808784Y-86577544D01*
X135956354Y-86676147D01*
X136081853Y-86801646D01*
X136180456Y-86949216D01*
X136248376Y-87113188D01*
X136283000Y-87287259D01*
X136283000Y-87464741D01*
X136248376Y-87638812D01*
X136180456Y-87802784D01*
X136081853Y-87950354D01*
X135956354Y-88075853D01*
X135808784Y-88174456D01*
X135644812Y-88242376D01*
X135495512Y-88272073D01*
X135470742Y-88277000D01*
X135293258Y-88277000D01*
X135268488Y-88272073D01*
X135119188Y-88242376D01*
X134955216Y-88174456D01*
X134807646Y-88075853D01*
X134682147Y-87950354D01*
X134583544Y-87802784D01*
X134515624Y-87638812D01*
X134481000Y-87464741D01*
X134481000Y-87287259D01*
X134515624Y-87113188D01*
X134583544Y-86949216D01*
X134682147Y-86801646D01*
X134807646Y-86676147D01*
X134955216Y-86577544D01*
X135119188Y-86509624D01*
X135268488Y-86479927D01*
X135293258Y-86475000D01*
X135470742Y-86475000D01*
X135495512Y-86479927D01*
G37*
G36*
X175627512Y-86479927D02*
G01*
X175776812Y-86509624D01*
X175940784Y-86577544D01*
X176088354Y-86676147D01*
X176213853Y-86801646D01*
X176312456Y-86949216D01*
X176380376Y-87113188D01*
X176415000Y-87287259D01*
X176415000Y-87464741D01*
X176380376Y-87638812D01*
X176312456Y-87802784D01*
X176213853Y-87950354D01*
X176088354Y-88075853D01*
X175940784Y-88174456D01*
X175776812Y-88242376D01*
X175627512Y-88272073D01*
X175602742Y-88277000D01*
X175425258Y-88277000D01*
X175400488Y-88272073D01*
X175251188Y-88242376D01*
X175087216Y-88174456D01*
X174939646Y-88075853D01*
X174814147Y-87950354D01*
X174715544Y-87802784D01*
X174647624Y-87638812D01*
X174613000Y-87464741D01*
X174613000Y-87287259D01*
X174647624Y-87113188D01*
X174715544Y-86949216D01*
X174814147Y-86801646D01*
X174939646Y-86676147D01*
X175087216Y-86577544D01*
X175251188Y-86509624D01*
X175400488Y-86479927D01*
X175425258Y-86475000D01*
X175602742Y-86475000D01*
X175627512Y-86479927D01*
G37*
G36*
X92315512Y-86479927D02*
G01*
X92464812Y-86509624D01*
X92628784Y-86577544D01*
X92776354Y-86676147D01*
X92901853Y-86801646D01*
X93000456Y-86949216D01*
X93068376Y-87113188D01*
X93103000Y-87287259D01*
X93103000Y-87464741D01*
X93068376Y-87638812D01*
X93000456Y-87802784D01*
X92901853Y-87950354D01*
X92776354Y-88075853D01*
X92628784Y-88174456D01*
X92464812Y-88242376D01*
X92315512Y-88272073D01*
X92290742Y-88277000D01*
X92113258Y-88277000D01*
X92088488Y-88272073D01*
X91939188Y-88242376D01*
X91775216Y-88174456D01*
X91627646Y-88075853D01*
X91502147Y-87950354D01*
X91403544Y-87802784D01*
X91335624Y-87638812D01*
X91301000Y-87464741D01*
X91301000Y-87287259D01*
X91335624Y-87113188D01*
X91403544Y-86949216D01*
X91502147Y-86801646D01*
X91627646Y-86676147D01*
X91775216Y-86577544D01*
X91939188Y-86509624D01*
X92088488Y-86479927D01*
X92113258Y-86475000D01*
X92290742Y-86475000D01*
X92315512Y-86479927D01*
G37*
G36*
X89775512Y-86479927D02*
G01*
X89924812Y-86509624D01*
X90088784Y-86577544D01*
X90236354Y-86676147D01*
X90361853Y-86801646D01*
X90460456Y-86949216D01*
X90528376Y-87113188D01*
X90563000Y-87287259D01*
X90563000Y-87464741D01*
X90528376Y-87638812D01*
X90460456Y-87802784D01*
X90361853Y-87950354D01*
X90236354Y-88075853D01*
X90088784Y-88174456D01*
X89924812Y-88242376D01*
X89775512Y-88272073D01*
X89750742Y-88277000D01*
X89573258Y-88277000D01*
X89548488Y-88272073D01*
X89399188Y-88242376D01*
X89235216Y-88174456D01*
X89087646Y-88075853D01*
X88962147Y-87950354D01*
X88863544Y-87802784D01*
X88795624Y-87638812D01*
X88761000Y-87464741D01*
X88761000Y-87287259D01*
X88795624Y-87113188D01*
X88863544Y-86949216D01*
X88962147Y-86801646D01*
X89087646Y-86676147D01*
X89235216Y-86577544D01*
X89399188Y-86509624D01*
X89548488Y-86479927D01*
X89573258Y-86475000D01*
X89750742Y-86475000D01*
X89775512Y-86479927D01*
G37*
G36*
X87235512Y-86479927D02*
G01*
X87384812Y-86509624D01*
X87548784Y-86577544D01*
X87696354Y-86676147D01*
X87821853Y-86801646D01*
X87920456Y-86949216D01*
X87988376Y-87113188D01*
X88023000Y-87287259D01*
X88023000Y-87464741D01*
X87988376Y-87638812D01*
X87920456Y-87802784D01*
X87821853Y-87950354D01*
X87696354Y-88075853D01*
X87548784Y-88174456D01*
X87384812Y-88242376D01*
X87235512Y-88272073D01*
X87210742Y-88277000D01*
X87033258Y-88277000D01*
X87008488Y-88272073D01*
X86859188Y-88242376D01*
X86695216Y-88174456D01*
X86547646Y-88075853D01*
X86422147Y-87950354D01*
X86323544Y-87802784D01*
X86255624Y-87638812D01*
X86221000Y-87464741D01*
X86221000Y-87287259D01*
X86255624Y-87113188D01*
X86323544Y-86949216D01*
X86422147Y-86801646D01*
X86547646Y-86676147D01*
X86695216Y-86577544D01*
X86859188Y-86509624D01*
X87008488Y-86479927D01*
X87033258Y-86475000D01*
X87210742Y-86475000D01*
X87235512Y-86479927D01*
G37*
G36*
X84695512Y-86479927D02*
G01*
X84844812Y-86509624D01*
X85008784Y-86577544D01*
X85156354Y-86676147D01*
X85281853Y-86801646D01*
X85380456Y-86949216D01*
X85448376Y-87113188D01*
X85483000Y-87287259D01*
X85483000Y-87464741D01*
X85448376Y-87638812D01*
X85380456Y-87802784D01*
X85281853Y-87950354D01*
X85156354Y-88075853D01*
X85008784Y-88174456D01*
X84844812Y-88242376D01*
X84695512Y-88272073D01*
X84670742Y-88277000D01*
X84493258Y-88277000D01*
X84468488Y-88272073D01*
X84319188Y-88242376D01*
X84155216Y-88174456D01*
X84007646Y-88075853D01*
X83882147Y-87950354D01*
X83783544Y-87802784D01*
X83715624Y-87638812D01*
X83681000Y-87464741D01*
X83681000Y-87287259D01*
X83715624Y-87113188D01*
X83783544Y-86949216D01*
X83882147Y-86801646D01*
X84007646Y-86676147D01*
X84155216Y-86577544D01*
X84319188Y-86509624D01*
X84468488Y-86479927D01*
X84493258Y-86475000D01*
X84670742Y-86475000D01*
X84695512Y-86479927D01*
G37*
G36*
X125335512Y-86479927D02*
G01*
X125484812Y-86509624D01*
X125648784Y-86577544D01*
X125796354Y-86676147D01*
X125921853Y-86801646D01*
X126020456Y-86949216D01*
X126088376Y-87113188D01*
X126123000Y-87287259D01*
X126123000Y-87464741D01*
X126088376Y-87638812D01*
X126020456Y-87802784D01*
X125921853Y-87950354D01*
X125796354Y-88075853D01*
X125648784Y-88174456D01*
X125484812Y-88242376D01*
X125335512Y-88272073D01*
X125310742Y-88277000D01*
X125133258Y-88277000D01*
X125108488Y-88272073D01*
X124959188Y-88242376D01*
X124795216Y-88174456D01*
X124647646Y-88075853D01*
X124522147Y-87950354D01*
X124423544Y-87802784D01*
X124355624Y-87638812D01*
X124321000Y-87464741D01*
X124321000Y-87287259D01*
X124355624Y-87113188D01*
X124423544Y-86949216D01*
X124522147Y-86801646D01*
X124647646Y-86676147D01*
X124795216Y-86577544D01*
X124959188Y-86509624D01*
X125108488Y-86479927D01*
X125133258Y-86475000D01*
X125310742Y-86475000D01*
X125335512Y-86479927D01*
G37*
G36*
X122795512Y-86479927D02*
G01*
X122944812Y-86509624D01*
X123108784Y-86577544D01*
X123256354Y-86676147D01*
X123381853Y-86801646D01*
X123480456Y-86949216D01*
X123548376Y-87113188D01*
X123583000Y-87287259D01*
X123583000Y-87464741D01*
X123548376Y-87638812D01*
X123480456Y-87802784D01*
X123381853Y-87950354D01*
X123256354Y-88075853D01*
X123108784Y-88174456D01*
X122944812Y-88242376D01*
X122795512Y-88272073D01*
X122770742Y-88277000D01*
X122593258Y-88277000D01*
X122568488Y-88272073D01*
X122419188Y-88242376D01*
X122255216Y-88174456D01*
X122107646Y-88075853D01*
X121982147Y-87950354D01*
X121883544Y-87802784D01*
X121815624Y-87638812D01*
X121781000Y-87464741D01*
X121781000Y-87287259D01*
X121815624Y-87113188D01*
X121883544Y-86949216D01*
X121982147Y-86801646D01*
X122107646Y-86676147D01*
X122255216Y-86577544D01*
X122419188Y-86509624D01*
X122568488Y-86479927D01*
X122593258Y-86475000D01*
X122770742Y-86475000D01*
X122795512Y-86479927D01*
G37*
G36*
X120255512Y-86479927D02*
G01*
X120404812Y-86509624D01*
X120568784Y-86577544D01*
X120716354Y-86676147D01*
X120841853Y-86801646D01*
X120940456Y-86949216D01*
X121008376Y-87113188D01*
X121043000Y-87287259D01*
X121043000Y-87464741D01*
X121008376Y-87638812D01*
X120940456Y-87802784D01*
X120841853Y-87950354D01*
X120716354Y-88075853D01*
X120568784Y-88174456D01*
X120404812Y-88242376D01*
X120255512Y-88272073D01*
X120230742Y-88277000D01*
X120053258Y-88277000D01*
X120028488Y-88272073D01*
X119879188Y-88242376D01*
X119715216Y-88174456D01*
X119567646Y-88075853D01*
X119442147Y-87950354D01*
X119343544Y-87802784D01*
X119275624Y-87638812D01*
X119241000Y-87464741D01*
X119241000Y-87287259D01*
X119275624Y-87113188D01*
X119343544Y-86949216D01*
X119442147Y-86801646D01*
X119567646Y-86676147D01*
X119715216Y-86577544D01*
X119879188Y-86509624D01*
X120028488Y-86479927D01*
X120053258Y-86475000D01*
X120230742Y-86475000D01*
X120255512Y-86479927D01*
G37*
G36*
X117715512Y-86479927D02*
G01*
X117864812Y-86509624D01*
X118028784Y-86577544D01*
X118176354Y-86676147D01*
X118301853Y-86801646D01*
X118400456Y-86949216D01*
X118468376Y-87113188D01*
X118503000Y-87287259D01*
X118503000Y-87464741D01*
X118468376Y-87638812D01*
X118400456Y-87802784D01*
X118301853Y-87950354D01*
X118176354Y-88075853D01*
X118028784Y-88174456D01*
X117864812Y-88242376D01*
X117715512Y-88272073D01*
X117690742Y-88277000D01*
X117513258Y-88277000D01*
X117488488Y-88272073D01*
X117339188Y-88242376D01*
X117175216Y-88174456D01*
X117027646Y-88075853D01*
X116902147Y-87950354D01*
X116803544Y-87802784D01*
X116735624Y-87638812D01*
X116701000Y-87464741D01*
X116701000Y-87287259D01*
X116735624Y-87113188D01*
X116803544Y-86949216D01*
X116902147Y-86801646D01*
X117027646Y-86676147D01*
X117175216Y-86577544D01*
X117339188Y-86509624D01*
X117488488Y-86479927D01*
X117513258Y-86475000D01*
X117690742Y-86475000D01*
X117715512Y-86479927D01*
G37*
G36*
X115175512Y-86479927D02*
G01*
X115324812Y-86509624D01*
X115488784Y-86577544D01*
X115636354Y-86676147D01*
X115761853Y-86801646D01*
X115860456Y-86949216D01*
X115928376Y-87113188D01*
X115963000Y-87287259D01*
X115963000Y-87464741D01*
X115928376Y-87638812D01*
X115860456Y-87802784D01*
X115761853Y-87950354D01*
X115636354Y-88075853D01*
X115488784Y-88174456D01*
X115324812Y-88242376D01*
X115175512Y-88272073D01*
X115150742Y-88277000D01*
X114973258Y-88277000D01*
X114948488Y-88272073D01*
X114799188Y-88242376D01*
X114635216Y-88174456D01*
X114487646Y-88075853D01*
X114362147Y-87950354D01*
X114263544Y-87802784D01*
X114195624Y-87638812D01*
X114161000Y-87464741D01*
X114161000Y-87287259D01*
X114195624Y-87113188D01*
X114263544Y-86949216D01*
X114362147Y-86801646D01*
X114487646Y-86676147D01*
X114635216Y-86577544D01*
X114799188Y-86509624D01*
X114948488Y-86479927D01*
X114973258Y-86475000D01*
X115150742Y-86475000D01*
X115175512Y-86479927D01*
G37*
G36*
X138035512Y-86479927D02*
G01*
X138184812Y-86509624D01*
X138348784Y-86577544D01*
X138496354Y-86676147D01*
X138621853Y-86801646D01*
X138720456Y-86949216D01*
X138788376Y-87113188D01*
X138823000Y-87287259D01*
X138823000Y-87464741D01*
X138788376Y-87638812D01*
X138720456Y-87802784D01*
X138621853Y-87950354D01*
X138496354Y-88075853D01*
X138348784Y-88174456D01*
X138184812Y-88242376D01*
X138035512Y-88272073D01*
X138010742Y-88277000D01*
X137833258Y-88277000D01*
X137808488Y-88272073D01*
X137659188Y-88242376D01*
X137495216Y-88174456D01*
X137347646Y-88075853D01*
X137222147Y-87950354D01*
X137123544Y-87802784D01*
X137055624Y-87638812D01*
X137021000Y-87464741D01*
X137021000Y-87287259D01*
X137055624Y-87113188D01*
X137123544Y-86949216D01*
X137222147Y-86801646D01*
X137347646Y-86676147D01*
X137495216Y-86577544D01*
X137659188Y-86509624D01*
X137808488Y-86479927D01*
X137833258Y-86475000D01*
X138010742Y-86475000D01*
X138035512Y-86479927D01*
G37*
G36*
X130415512Y-73779927D02*
G01*
X130564812Y-73809624D01*
X130728784Y-73877544D01*
X130876354Y-73976147D01*
X131001853Y-74101646D01*
X131100456Y-74249216D01*
X131168376Y-74413188D01*
X131203000Y-74587259D01*
X131203000Y-74764741D01*
X131168376Y-74938812D01*
X131100456Y-75102784D01*
X131001853Y-75250354D01*
X130876354Y-75375853D01*
X130728784Y-75474456D01*
X130564812Y-75542376D01*
X130415512Y-75572073D01*
X130390742Y-75577000D01*
X130213258Y-75577000D01*
X130188488Y-75572073D01*
X130039188Y-75542376D01*
X129875216Y-75474456D01*
X129727646Y-75375853D01*
X129602147Y-75250354D01*
X129503544Y-75102784D01*
X129435624Y-74938812D01*
X129401000Y-74764741D01*
X129401000Y-74587259D01*
X129435624Y-74413188D01*
X129503544Y-74249216D01*
X129602147Y-74101646D01*
X129727646Y-73976147D01*
X129875216Y-73877544D01*
X130039188Y-73809624D01*
X130188488Y-73779927D01*
X130213258Y-73775000D01*
X130390742Y-73775000D01*
X130415512Y-73779927D01*
G37*
G36*
X132955512Y-73779927D02*
G01*
X133104812Y-73809624D01*
X133268784Y-73877544D01*
X133416354Y-73976147D01*
X133541853Y-74101646D01*
X133640456Y-74249216D01*
X133708376Y-74413188D01*
X133743000Y-74587259D01*
X133743000Y-74764741D01*
X133708376Y-74938812D01*
X133640456Y-75102784D01*
X133541853Y-75250354D01*
X133416354Y-75375853D01*
X133268784Y-75474456D01*
X133104812Y-75542376D01*
X132955512Y-75572073D01*
X132930742Y-75577000D01*
X132753258Y-75577000D01*
X132728488Y-75572073D01*
X132579188Y-75542376D01*
X132415216Y-75474456D01*
X132267646Y-75375853D01*
X132142147Y-75250354D01*
X132043544Y-75102784D01*
X131975624Y-74938812D01*
X131941000Y-74764741D01*
X131941000Y-74587259D01*
X131975624Y-74413188D01*
X132043544Y-74249216D01*
X132142147Y-74101646D01*
X132267646Y-73976147D01*
X132415216Y-73877544D01*
X132579188Y-73809624D01*
X132728488Y-73779927D01*
X132753258Y-73775000D01*
X132930742Y-73775000D01*
X132955512Y-73779927D01*
G37*
G36*
X145147512Y-73779927D02*
G01*
X145296812Y-73809624D01*
X145460784Y-73877544D01*
X145608354Y-73976147D01*
X145733853Y-74101646D01*
X145832456Y-74249216D01*
X145900376Y-74413188D01*
X145935000Y-74587259D01*
X145935000Y-74764741D01*
X145900376Y-74938812D01*
X145832456Y-75102784D01*
X145733853Y-75250354D01*
X145608354Y-75375853D01*
X145460784Y-75474456D01*
X145296812Y-75542376D01*
X145147512Y-75572073D01*
X145122742Y-75577000D01*
X144945258Y-75577000D01*
X144920488Y-75572073D01*
X144771188Y-75542376D01*
X144607216Y-75474456D01*
X144459646Y-75375853D01*
X144334147Y-75250354D01*
X144235544Y-75102784D01*
X144167624Y-74938812D01*
X144133000Y-74764741D01*
X144133000Y-74587259D01*
X144167624Y-74413188D01*
X144235544Y-74249216D01*
X144334147Y-74101646D01*
X144459646Y-73976147D01*
X144607216Y-73877544D01*
X144771188Y-73809624D01*
X144920488Y-73779927D01*
X144945258Y-73775000D01*
X145122742Y-73775000D01*
X145147512Y-73779927D01*
G37*
G36*
X142607512Y-73779927D02*
G01*
X142756812Y-73809624D01*
X142920784Y-73877544D01*
X143068354Y-73976147D01*
X143193853Y-74101646D01*
X143292456Y-74249216D01*
X143360376Y-74413188D01*
X143395000Y-74587259D01*
X143395000Y-74764741D01*
X143360376Y-74938812D01*
X143292456Y-75102784D01*
X143193853Y-75250354D01*
X143068354Y-75375853D01*
X142920784Y-75474456D01*
X142756812Y-75542376D01*
X142607512Y-75572073D01*
X142582742Y-75577000D01*
X142405258Y-75577000D01*
X142380488Y-75572073D01*
X142231188Y-75542376D01*
X142067216Y-75474456D01*
X141919646Y-75375853D01*
X141794147Y-75250354D01*
X141695544Y-75102784D01*
X141627624Y-74938812D01*
X141593000Y-74764741D01*
X141593000Y-74587259D01*
X141627624Y-74413188D01*
X141695544Y-74249216D01*
X141794147Y-74101646D01*
X141919646Y-73976147D01*
X142067216Y-73877544D01*
X142231188Y-73809624D01*
X142380488Y-73779927D01*
X142405258Y-73775000D01*
X142582742Y-73775000D01*
X142607512Y-73779927D01*
G37*
G36*
X147687512Y-73779927D02*
G01*
X147836812Y-73809624D01*
X148000784Y-73877544D01*
X148148354Y-73976147D01*
X148273853Y-74101646D01*
X148372456Y-74249216D01*
X148440376Y-74413188D01*
X148475000Y-74587259D01*
X148475000Y-74764741D01*
X148440376Y-74938812D01*
X148372456Y-75102784D01*
X148273853Y-75250354D01*
X148148354Y-75375853D01*
X148000784Y-75474456D01*
X147836812Y-75542376D01*
X147687512Y-75572073D01*
X147662742Y-75577000D01*
X147485258Y-75577000D01*
X147460488Y-75572073D01*
X147311188Y-75542376D01*
X147147216Y-75474456D01*
X146999646Y-75375853D01*
X146874147Y-75250354D01*
X146775544Y-75102784D01*
X146707624Y-74938812D01*
X146673000Y-74764741D01*
X146673000Y-74587259D01*
X146707624Y-74413188D01*
X146775544Y-74249216D01*
X146874147Y-74101646D01*
X146999646Y-73976147D01*
X147147216Y-73877544D01*
X147311188Y-73809624D01*
X147460488Y-73779927D01*
X147485258Y-73775000D01*
X147662742Y-73775000D01*
X147687512Y-73779927D01*
G37*
G36*
X150227512Y-73779927D02*
G01*
X150376812Y-73809624D01*
X150540784Y-73877544D01*
X150688354Y-73976147D01*
X150813853Y-74101646D01*
X150912456Y-74249216D01*
X150980376Y-74413188D01*
X151015000Y-74587259D01*
X151015000Y-74764741D01*
X150980376Y-74938812D01*
X150912456Y-75102784D01*
X150813853Y-75250354D01*
X150688354Y-75375853D01*
X150540784Y-75474456D01*
X150376812Y-75542376D01*
X150227512Y-75572073D01*
X150202742Y-75577000D01*
X150025258Y-75577000D01*
X150000488Y-75572073D01*
X149851188Y-75542376D01*
X149687216Y-75474456D01*
X149539646Y-75375853D01*
X149414147Y-75250354D01*
X149315544Y-75102784D01*
X149247624Y-74938812D01*
X149213000Y-74764741D01*
X149213000Y-74587259D01*
X149247624Y-74413188D01*
X149315544Y-74249216D01*
X149414147Y-74101646D01*
X149539646Y-73976147D01*
X149687216Y-73877544D01*
X149851188Y-73809624D01*
X150000488Y-73779927D01*
X150025258Y-73775000D01*
X150202742Y-73775000D01*
X150227512Y-73779927D01*
G37*
G36*
X152767512Y-73779927D02*
G01*
X152916812Y-73809624D01*
X153080784Y-73877544D01*
X153228354Y-73976147D01*
X153353853Y-74101646D01*
X153452456Y-74249216D01*
X153520376Y-74413188D01*
X153555000Y-74587259D01*
X153555000Y-74764741D01*
X153520376Y-74938812D01*
X153452456Y-75102784D01*
X153353853Y-75250354D01*
X153228354Y-75375853D01*
X153080784Y-75474456D01*
X152916812Y-75542376D01*
X152767512Y-75572073D01*
X152742742Y-75577000D01*
X152565258Y-75577000D01*
X152540488Y-75572073D01*
X152391188Y-75542376D01*
X152227216Y-75474456D01*
X152079646Y-75375853D01*
X151954147Y-75250354D01*
X151855544Y-75102784D01*
X151787624Y-74938812D01*
X151753000Y-74764741D01*
X151753000Y-74587259D01*
X151787624Y-74413188D01*
X151855544Y-74249216D01*
X151954147Y-74101646D01*
X152079646Y-73976147D01*
X152227216Y-73877544D01*
X152391188Y-73809624D01*
X152540488Y-73779927D01*
X152565258Y-73775000D01*
X152742742Y-73775000D01*
X152767512Y-73779927D01*
G37*
G36*
X168007512Y-73779927D02*
G01*
X168156812Y-73809624D01*
X168320784Y-73877544D01*
X168468354Y-73976147D01*
X168593853Y-74101646D01*
X168692456Y-74249216D01*
X168760376Y-74413188D01*
X168795000Y-74587259D01*
X168795000Y-74764741D01*
X168760376Y-74938812D01*
X168692456Y-75102784D01*
X168593853Y-75250354D01*
X168468354Y-75375853D01*
X168320784Y-75474456D01*
X168156812Y-75542376D01*
X168007512Y-75572073D01*
X167982742Y-75577000D01*
X167805258Y-75577000D01*
X167780488Y-75572073D01*
X167631188Y-75542376D01*
X167467216Y-75474456D01*
X167319646Y-75375853D01*
X167194147Y-75250354D01*
X167095544Y-75102784D01*
X167027624Y-74938812D01*
X166993000Y-74764741D01*
X166993000Y-74587259D01*
X167027624Y-74413188D01*
X167095544Y-74249216D01*
X167194147Y-74101646D01*
X167319646Y-73976147D01*
X167467216Y-73877544D01*
X167631188Y-73809624D01*
X167780488Y-73779927D01*
X167805258Y-73775000D01*
X167982742Y-73775000D01*
X168007512Y-73779927D01*
G37*
G36*
X170547512Y-73779927D02*
G01*
X170696812Y-73809624D01*
X170860784Y-73877544D01*
X171008354Y-73976147D01*
X171133853Y-74101646D01*
X171232456Y-74249216D01*
X171300376Y-74413188D01*
X171335000Y-74587259D01*
X171335000Y-74764741D01*
X171300376Y-74938812D01*
X171232456Y-75102784D01*
X171133853Y-75250354D01*
X171008354Y-75375853D01*
X170860784Y-75474456D01*
X170696812Y-75542376D01*
X170547512Y-75572073D01*
X170522742Y-75577000D01*
X170345258Y-75577000D01*
X170320488Y-75572073D01*
X170171188Y-75542376D01*
X170007216Y-75474456D01*
X169859646Y-75375853D01*
X169734147Y-75250354D01*
X169635544Y-75102784D01*
X169567624Y-74938812D01*
X169533000Y-74764741D01*
X169533000Y-74587259D01*
X169567624Y-74413188D01*
X169635544Y-74249216D01*
X169734147Y-74101646D01*
X169859646Y-73976147D01*
X170007216Y-73877544D01*
X170171188Y-73809624D01*
X170320488Y-73779927D01*
X170345258Y-73775000D01*
X170522742Y-73775000D01*
X170547512Y-73779927D01*
G37*
G36*
X173087512Y-73779927D02*
G01*
X173236812Y-73809624D01*
X173400784Y-73877544D01*
X173548354Y-73976147D01*
X173673853Y-74101646D01*
X173772456Y-74249216D01*
X173840376Y-74413188D01*
X173875000Y-74587259D01*
X173875000Y-74764741D01*
X173840376Y-74938812D01*
X173772456Y-75102784D01*
X173673853Y-75250354D01*
X173548354Y-75375853D01*
X173400784Y-75474456D01*
X173236812Y-75542376D01*
X173087512Y-75572073D01*
X173062742Y-75577000D01*
X172885258Y-75577000D01*
X172860488Y-75572073D01*
X172711188Y-75542376D01*
X172547216Y-75474456D01*
X172399646Y-75375853D01*
X172274147Y-75250354D01*
X172175544Y-75102784D01*
X172107624Y-74938812D01*
X172073000Y-74764741D01*
X172073000Y-74587259D01*
X172107624Y-74413188D01*
X172175544Y-74249216D01*
X172274147Y-74101646D01*
X172399646Y-73976147D01*
X172547216Y-73877544D01*
X172711188Y-73809624D01*
X172860488Y-73779927D01*
X172885258Y-73775000D01*
X173062742Y-73775000D01*
X173087512Y-73779927D01*
G37*
G36*
X175627512Y-73779927D02*
G01*
X175776812Y-73809624D01*
X175940784Y-73877544D01*
X176088354Y-73976147D01*
X176213853Y-74101646D01*
X176312456Y-74249216D01*
X176380376Y-74413188D01*
X176415000Y-74587259D01*
X176415000Y-74764741D01*
X176380376Y-74938812D01*
X176312456Y-75102784D01*
X176213853Y-75250354D01*
X176088354Y-75375853D01*
X175940784Y-75474456D01*
X175776812Y-75542376D01*
X175627512Y-75572073D01*
X175602742Y-75577000D01*
X175425258Y-75577000D01*
X175400488Y-75572073D01*
X175251188Y-75542376D01*
X175087216Y-75474456D01*
X174939646Y-75375853D01*
X174814147Y-75250354D01*
X174715544Y-75102784D01*
X174647624Y-74938812D01*
X174613000Y-74764741D01*
X174613000Y-74587259D01*
X174647624Y-74413188D01*
X174715544Y-74249216D01*
X174814147Y-74101646D01*
X174939646Y-73976147D01*
X175087216Y-73877544D01*
X175251188Y-73809624D01*
X175400488Y-73779927D01*
X175425258Y-73775000D01*
X175602742Y-73775000D01*
X175627512Y-73779927D01*
G37*
G36*
X178167512Y-73779927D02*
G01*
X178316812Y-73809624D01*
X178480784Y-73877544D01*
X178628354Y-73976147D01*
X178753853Y-74101646D01*
X178852456Y-74249216D01*
X178920376Y-74413188D01*
X178955000Y-74587259D01*
X178955000Y-74764741D01*
X178920376Y-74938812D01*
X178852456Y-75102784D01*
X178753853Y-75250354D01*
X178628354Y-75375853D01*
X178480784Y-75474456D01*
X178316812Y-75542376D01*
X178167512Y-75572073D01*
X178142742Y-75577000D01*
X177965258Y-75577000D01*
X177940488Y-75572073D01*
X177791188Y-75542376D01*
X177627216Y-75474456D01*
X177479646Y-75375853D01*
X177354147Y-75250354D01*
X177255544Y-75102784D01*
X177187624Y-74938812D01*
X177153000Y-74764741D01*
X177153000Y-74587259D01*
X177187624Y-74413188D01*
X177255544Y-74249216D01*
X177354147Y-74101646D01*
X177479646Y-73976147D01*
X177627216Y-73877544D01*
X177791188Y-73809624D01*
X177940488Y-73779927D01*
X177965258Y-73775000D01*
X178142742Y-73775000D01*
X178167512Y-73779927D01*
G37*
G36*
X127875512Y-73779927D02*
G01*
X128024812Y-73809624D01*
X128188784Y-73877544D01*
X128336354Y-73976147D01*
X128461853Y-74101646D01*
X128560456Y-74249216D01*
X128628376Y-74413188D01*
X128663000Y-74587259D01*
X128663000Y-74764741D01*
X128628376Y-74938812D01*
X128560456Y-75102784D01*
X128461853Y-75250354D01*
X128336354Y-75375853D01*
X128188784Y-75474456D01*
X128024812Y-75542376D01*
X127875512Y-75572073D01*
X127850742Y-75577000D01*
X127673258Y-75577000D01*
X127648488Y-75572073D01*
X127499188Y-75542376D01*
X127335216Y-75474456D01*
X127187646Y-75375853D01*
X127062147Y-75250354D01*
X126963544Y-75102784D01*
X126895624Y-74938812D01*
X126861000Y-74764741D01*
X126861000Y-74587259D01*
X126895624Y-74413188D01*
X126963544Y-74249216D01*
X127062147Y-74101646D01*
X127187646Y-73976147D01*
X127335216Y-73877544D01*
X127499188Y-73809624D01*
X127648488Y-73779927D01*
X127673258Y-73775000D01*
X127850742Y-73775000D01*
X127875512Y-73779927D01*
G37*
G36*
X125335512Y-73779927D02*
G01*
X125484812Y-73809624D01*
X125648784Y-73877544D01*
X125796354Y-73976147D01*
X125921853Y-74101646D01*
X126020456Y-74249216D01*
X126088376Y-74413188D01*
X126123000Y-74587259D01*
X126123000Y-74764741D01*
X126088376Y-74938812D01*
X126020456Y-75102784D01*
X125921853Y-75250354D01*
X125796354Y-75375853D01*
X125648784Y-75474456D01*
X125484812Y-75542376D01*
X125335512Y-75572073D01*
X125310742Y-75577000D01*
X125133258Y-75577000D01*
X125108488Y-75572073D01*
X124959188Y-75542376D01*
X124795216Y-75474456D01*
X124647646Y-75375853D01*
X124522147Y-75250354D01*
X124423544Y-75102784D01*
X124355624Y-74938812D01*
X124321000Y-74764741D01*
X124321000Y-74587259D01*
X124355624Y-74413188D01*
X124423544Y-74249216D01*
X124522147Y-74101646D01*
X124647646Y-73976147D01*
X124795216Y-73877544D01*
X124959188Y-73809624D01*
X125108488Y-73779927D01*
X125133258Y-73775000D01*
X125310742Y-73775000D01*
X125335512Y-73779927D01*
G37*
G36*
X122795512Y-73779927D02*
G01*
X122944812Y-73809624D01*
X123108784Y-73877544D01*
X123256354Y-73976147D01*
X123381853Y-74101646D01*
X123480456Y-74249216D01*
X123548376Y-74413188D01*
X123583000Y-74587259D01*
X123583000Y-74764741D01*
X123548376Y-74938812D01*
X123480456Y-75102784D01*
X123381853Y-75250354D01*
X123256354Y-75375853D01*
X123108784Y-75474456D01*
X122944812Y-75542376D01*
X122795512Y-75572073D01*
X122770742Y-75577000D01*
X122593258Y-75577000D01*
X122568488Y-75572073D01*
X122419188Y-75542376D01*
X122255216Y-75474456D01*
X122107646Y-75375853D01*
X121982147Y-75250354D01*
X121883544Y-75102784D01*
X121815624Y-74938812D01*
X121781000Y-74764741D01*
X121781000Y-74587259D01*
X121815624Y-74413188D01*
X121883544Y-74249216D01*
X121982147Y-74101646D01*
X122107646Y-73976147D01*
X122255216Y-73877544D01*
X122419188Y-73809624D01*
X122568488Y-73779927D01*
X122593258Y-73775000D01*
X122770742Y-73775000D01*
X122795512Y-73779927D01*
G37*
G36*
X120255512Y-73779927D02*
G01*
X120404812Y-73809624D01*
X120568784Y-73877544D01*
X120716354Y-73976147D01*
X120841853Y-74101646D01*
X120940456Y-74249216D01*
X121008376Y-74413188D01*
X121043000Y-74587259D01*
X121043000Y-74764741D01*
X121008376Y-74938812D01*
X120940456Y-75102784D01*
X120841853Y-75250354D01*
X120716354Y-75375853D01*
X120568784Y-75474456D01*
X120404812Y-75542376D01*
X120255512Y-75572073D01*
X120230742Y-75577000D01*
X120053258Y-75577000D01*
X120028488Y-75572073D01*
X119879188Y-75542376D01*
X119715216Y-75474456D01*
X119567646Y-75375853D01*
X119442147Y-75250354D01*
X119343544Y-75102784D01*
X119275624Y-74938812D01*
X119241000Y-74764741D01*
X119241000Y-74587259D01*
X119275624Y-74413188D01*
X119343544Y-74249216D01*
X119442147Y-74101646D01*
X119567646Y-73976147D01*
X119715216Y-73877544D01*
X119879188Y-73809624D01*
X120028488Y-73779927D01*
X120053258Y-73775000D01*
X120230742Y-73775000D01*
X120255512Y-73779927D01*
G37*
G36*
X117715512Y-73779927D02*
G01*
X117864812Y-73809624D01*
X118028784Y-73877544D01*
X118176354Y-73976147D01*
X118301853Y-74101646D01*
X118400456Y-74249216D01*
X118468376Y-74413188D01*
X118503000Y-74587259D01*
X118503000Y-74764741D01*
X118468376Y-74938812D01*
X118400456Y-75102784D01*
X118301853Y-75250354D01*
X118176354Y-75375853D01*
X118028784Y-75474456D01*
X117864812Y-75542376D01*
X117715512Y-75572073D01*
X117690742Y-75577000D01*
X117513258Y-75577000D01*
X117488488Y-75572073D01*
X117339188Y-75542376D01*
X117175216Y-75474456D01*
X117027646Y-75375853D01*
X116902147Y-75250354D01*
X116803544Y-75102784D01*
X116735624Y-74938812D01*
X116701000Y-74764741D01*
X116701000Y-74587259D01*
X116735624Y-74413188D01*
X116803544Y-74249216D01*
X116902147Y-74101646D01*
X117027646Y-73976147D01*
X117175216Y-73877544D01*
X117339188Y-73809624D01*
X117488488Y-73779927D01*
X117513258Y-73775000D01*
X117690742Y-73775000D01*
X117715512Y-73779927D01*
G37*
G36*
X115175512Y-73779927D02*
G01*
X115324812Y-73809624D01*
X115488784Y-73877544D01*
X115636354Y-73976147D01*
X115761853Y-74101646D01*
X115860456Y-74249216D01*
X115928376Y-74413188D01*
X115963000Y-74587259D01*
X115963000Y-74764741D01*
X115928376Y-74938812D01*
X115860456Y-75102784D01*
X115761853Y-75250354D01*
X115636354Y-75375853D01*
X115488784Y-75474456D01*
X115324812Y-75542376D01*
X115175512Y-75572073D01*
X115150742Y-75577000D01*
X114973258Y-75577000D01*
X114948488Y-75572073D01*
X114799188Y-75542376D01*
X114635216Y-75474456D01*
X114487646Y-75375853D01*
X114362147Y-75250354D01*
X114263544Y-75102784D01*
X114195624Y-74938812D01*
X114161000Y-74764741D01*
X114161000Y-74587259D01*
X114195624Y-74413188D01*
X114263544Y-74249216D01*
X114362147Y-74101646D01*
X114487646Y-73976147D01*
X114635216Y-73877544D01*
X114799188Y-73809624D01*
X114948488Y-73779927D01*
X114973258Y-73775000D01*
X115150742Y-73775000D01*
X115175512Y-73779927D01*
G37*
G36*
X94855512Y-73779927D02*
G01*
X95004812Y-73809624D01*
X95168784Y-73877544D01*
X95316354Y-73976147D01*
X95441853Y-74101646D01*
X95540456Y-74249216D01*
X95608376Y-74413188D01*
X95643000Y-74587259D01*
X95643000Y-74764741D01*
X95608376Y-74938812D01*
X95540456Y-75102784D01*
X95441853Y-75250354D01*
X95316354Y-75375853D01*
X95168784Y-75474456D01*
X95004812Y-75542376D01*
X94855512Y-75572073D01*
X94830742Y-75577000D01*
X94653258Y-75577000D01*
X94628488Y-75572073D01*
X94479188Y-75542376D01*
X94315216Y-75474456D01*
X94167646Y-75375853D01*
X94042147Y-75250354D01*
X93943544Y-75102784D01*
X93875624Y-74938812D01*
X93841000Y-74764741D01*
X93841000Y-74587259D01*
X93875624Y-74413188D01*
X93943544Y-74249216D01*
X94042147Y-74101646D01*
X94167646Y-73976147D01*
X94315216Y-73877544D01*
X94479188Y-73809624D01*
X94628488Y-73779927D01*
X94653258Y-73775000D01*
X94830742Y-73775000D01*
X94855512Y-73779927D01*
G37*
G36*
X92315512Y-73779927D02*
G01*
X92464812Y-73809624D01*
X92628784Y-73877544D01*
X92776354Y-73976147D01*
X92901853Y-74101646D01*
X93000456Y-74249216D01*
X93068376Y-74413188D01*
X93103000Y-74587259D01*
X93103000Y-74764741D01*
X93068376Y-74938812D01*
X93000456Y-75102784D01*
X92901853Y-75250354D01*
X92776354Y-75375853D01*
X92628784Y-75474456D01*
X92464812Y-75542376D01*
X92315512Y-75572073D01*
X92290742Y-75577000D01*
X92113258Y-75577000D01*
X92088488Y-75572073D01*
X91939188Y-75542376D01*
X91775216Y-75474456D01*
X91627646Y-75375853D01*
X91502147Y-75250354D01*
X91403544Y-75102784D01*
X91335624Y-74938812D01*
X91301000Y-74764741D01*
X91301000Y-74587259D01*
X91335624Y-74413188D01*
X91403544Y-74249216D01*
X91502147Y-74101646D01*
X91627646Y-73976147D01*
X91775216Y-73877544D01*
X91939188Y-73809624D01*
X92088488Y-73779927D01*
X92113258Y-73775000D01*
X92290742Y-73775000D01*
X92315512Y-73779927D01*
G37*
G36*
X89775512Y-73779927D02*
G01*
X89924812Y-73809624D01*
X90088784Y-73877544D01*
X90236354Y-73976147D01*
X90361853Y-74101646D01*
X90460456Y-74249216D01*
X90528376Y-74413188D01*
X90563000Y-74587259D01*
X90563000Y-74764741D01*
X90528376Y-74938812D01*
X90460456Y-75102784D01*
X90361853Y-75250354D01*
X90236354Y-75375853D01*
X90088784Y-75474456D01*
X89924812Y-75542376D01*
X89775512Y-75572073D01*
X89750742Y-75577000D01*
X89573258Y-75577000D01*
X89548488Y-75572073D01*
X89399188Y-75542376D01*
X89235216Y-75474456D01*
X89087646Y-75375853D01*
X88962147Y-75250354D01*
X88863544Y-75102784D01*
X88795624Y-74938812D01*
X88761000Y-74764741D01*
X88761000Y-74587259D01*
X88795624Y-74413188D01*
X88863544Y-74249216D01*
X88962147Y-74101646D01*
X89087646Y-73976147D01*
X89235216Y-73877544D01*
X89399188Y-73809624D01*
X89548488Y-73779927D01*
X89573258Y-73775000D01*
X89750742Y-73775000D01*
X89775512Y-73779927D01*
G37*
G36*
X87235512Y-73779927D02*
G01*
X87384812Y-73809624D01*
X87548784Y-73877544D01*
X87696354Y-73976147D01*
X87821853Y-74101646D01*
X87920456Y-74249216D01*
X87988376Y-74413188D01*
X88023000Y-74587259D01*
X88023000Y-74764741D01*
X87988376Y-74938812D01*
X87920456Y-75102784D01*
X87821853Y-75250354D01*
X87696354Y-75375853D01*
X87548784Y-75474456D01*
X87384812Y-75542376D01*
X87235512Y-75572073D01*
X87210742Y-75577000D01*
X87033258Y-75577000D01*
X87008488Y-75572073D01*
X86859188Y-75542376D01*
X86695216Y-75474456D01*
X86547646Y-75375853D01*
X86422147Y-75250354D01*
X86323544Y-75102784D01*
X86255624Y-74938812D01*
X86221000Y-74764741D01*
X86221000Y-74587259D01*
X86255624Y-74413188D01*
X86323544Y-74249216D01*
X86422147Y-74101646D01*
X86547646Y-73976147D01*
X86695216Y-73877544D01*
X86859188Y-73809624D01*
X87008488Y-73779927D01*
X87033258Y-73775000D01*
X87210742Y-73775000D01*
X87235512Y-73779927D01*
G37*
G36*
X84695512Y-73779927D02*
G01*
X84844812Y-73809624D01*
X85008784Y-73877544D01*
X85156354Y-73976147D01*
X85281853Y-74101646D01*
X85380456Y-74249216D01*
X85448376Y-74413188D01*
X85483000Y-74587259D01*
X85483000Y-74764741D01*
X85448376Y-74938812D01*
X85380456Y-75102784D01*
X85281853Y-75250354D01*
X85156354Y-75375853D01*
X85008784Y-75474456D01*
X84844812Y-75542376D01*
X84695512Y-75572073D01*
X84670742Y-75577000D01*
X84493258Y-75577000D01*
X84468488Y-75572073D01*
X84319188Y-75542376D01*
X84155216Y-75474456D01*
X84007646Y-75375853D01*
X83882147Y-75250354D01*
X83783544Y-75102784D01*
X83715624Y-74938812D01*
X83681000Y-74764741D01*
X83681000Y-74587259D01*
X83715624Y-74413188D01*
X83783544Y-74249216D01*
X83882147Y-74101646D01*
X84007646Y-73976147D01*
X84155216Y-73877544D01*
X84319188Y-73809624D01*
X84468488Y-73779927D01*
X84493258Y-73775000D01*
X84670742Y-73775000D01*
X84695512Y-73779927D01*
G37*
G36*
X135495512Y-73779927D02*
G01*
X135644812Y-73809624D01*
X135808784Y-73877544D01*
X135956354Y-73976147D01*
X136081853Y-74101646D01*
X136180456Y-74249216D01*
X136248376Y-74413188D01*
X136283000Y-74587259D01*
X136283000Y-74764741D01*
X136248376Y-74938812D01*
X136180456Y-75102784D01*
X136081853Y-75250354D01*
X135956354Y-75375853D01*
X135808784Y-75474456D01*
X135644812Y-75542376D01*
X135495512Y-75572073D01*
X135470742Y-75577000D01*
X135293258Y-75577000D01*
X135268488Y-75572073D01*
X135119188Y-75542376D01*
X134955216Y-75474456D01*
X134807646Y-75375853D01*
X134682147Y-75250354D01*
X134583544Y-75102784D01*
X134515624Y-74938812D01*
X134481000Y-74764741D01*
X134481000Y-74587259D01*
X134515624Y-74413188D01*
X134583544Y-74249216D01*
X134682147Y-74101646D01*
X134807646Y-73976147D01*
X134955216Y-73877544D01*
X135119188Y-73809624D01*
X135268488Y-73779927D01*
X135293258Y-73775000D01*
X135470742Y-73775000D01*
X135495512Y-73779927D01*
G37*
G36*
X138035512Y-73779927D02*
G01*
X138184812Y-73809624D01*
X138348784Y-73877544D01*
X138496354Y-73976147D01*
X138621853Y-74101646D01*
X138720456Y-74249216D01*
X138788376Y-74413188D01*
X138823000Y-74587259D01*
X138823000Y-74764741D01*
X138788376Y-74938812D01*
X138720456Y-75102784D01*
X138621853Y-75250354D01*
X138496354Y-75375853D01*
X138348784Y-75474456D01*
X138184812Y-75542376D01*
X138035512Y-75572073D01*
X138010742Y-75577000D01*
X137833258Y-75577000D01*
X137808488Y-75572073D01*
X137659188Y-75542376D01*
X137495216Y-75474456D01*
X137347646Y-75375853D01*
X137222147Y-75250354D01*
X137123544Y-75102784D01*
X137055624Y-74938812D01*
X137021000Y-74764741D01*
X137021000Y-74587259D01*
X137055624Y-74413188D01*
X137123544Y-74249216D01*
X137222147Y-74101646D01*
X137347646Y-73976147D01*
X137495216Y-73877544D01*
X137659188Y-73809624D01*
X137808488Y-73779927D01*
X137833258Y-73775000D01*
X138010742Y-73775000D01*
X138035512Y-73779927D01*
G37*
M02*
