G04 #@! TF.GenerationSoftware,KiCad,Pcbnew,5.1.5-52549c5~86~ubuntu19.04.1*
G04 #@! TF.CreationDate,2020-05-12T21:37:58+10:00*
G04 #@! TF.ProjectId,ICM2_FrontPanel_Breakout,49434d32-5f46-4726-9f6e-7450616e656c,rev?*
G04 #@! TF.SameCoordinates,Original*
G04 #@! TF.FileFunction,Legend,Top*
G04 #@! TF.FilePolarity,Positive*
%FSLAX46Y46*%
G04 Gerber Fmt 4.6, Leading zero omitted, Abs format (unit mm)*
G04 Created by KiCad (PCBNEW 5.1.5-52549c5~86~ubuntu19.04.1) date 2020-05-12 21:37:58*
%MOMM*%
%LPD*%
G04 APERTURE LIST*
%ADD10C,0.150000*%
%ADD11C,0.120000*%
G04 APERTURE END LIST*
D10*
X163639523Y-81097380D02*
X163068095Y-81097380D01*
X163353809Y-81097380D02*
X163353809Y-80097380D01*
X163258571Y-80240238D01*
X163163333Y-80335476D01*
X163068095Y-80383095D01*
X163972857Y-80097380D02*
X164591904Y-80097380D01*
X164258571Y-80478333D01*
X164401428Y-80478333D01*
X164496666Y-80525952D01*
X164544285Y-80573571D01*
X164591904Y-80668809D01*
X164591904Y-80906904D01*
X164544285Y-81002142D01*
X164496666Y-81049761D01*
X164401428Y-81097380D01*
X164115714Y-81097380D01*
X164020476Y-81049761D01*
X163972857Y-81002142D01*
X179355714Y-81097380D02*
X178784285Y-81097380D01*
X179070000Y-81097380D02*
X179070000Y-80097380D01*
X178974761Y-80240238D01*
X178879523Y-80335476D01*
X178784285Y-80383095D01*
X156019523Y-81097380D02*
X155448095Y-81097380D01*
X155733809Y-81097380D02*
X155733809Y-80097380D01*
X155638571Y-80240238D01*
X155543333Y-80335476D01*
X155448095Y-80383095D01*
X156495714Y-81097380D02*
X156686190Y-81097380D01*
X156781428Y-81049761D01*
X156829047Y-81002142D01*
X156924285Y-80859285D01*
X156971904Y-80668809D01*
X156971904Y-80287857D01*
X156924285Y-80192619D01*
X156876666Y-80145000D01*
X156781428Y-80097380D01*
X156590952Y-80097380D01*
X156495714Y-80145000D01*
X156448095Y-80192619D01*
X156400476Y-80287857D01*
X156400476Y-80525952D01*
X156448095Y-80621190D01*
X156495714Y-80668809D01*
X156590952Y-80716428D01*
X156781428Y-80716428D01*
X156876666Y-80668809D01*
X156924285Y-80621190D01*
X156971904Y-80525952D01*
X155448095Y-82732619D02*
X155495714Y-82685000D01*
X155590952Y-82637380D01*
X155829047Y-82637380D01*
X155924285Y-82685000D01*
X155971904Y-82732619D01*
X156019523Y-82827857D01*
X156019523Y-82923095D01*
X155971904Y-83065952D01*
X155400476Y-83637380D01*
X156019523Y-83637380D01*
X156638571Y-82637380D02*
X156733809Y-82637380D01*
X156829047Y-82685000D01*
X156876666Y-82732619D01*
X156924285Y-82827857D01*
X156971904Y-83018333D01*
X156971904Y-83256428D01*
X156924285Y-83446904D01*
X156876666Y-83542142D01*
X156829047Y-83589761D01*
X156733809Y-83637380D01*
X156638571Y-83637380D01*
X156543333Y-83589761D01*
X156495714Y-83542142D01*
X156448095Y-83446904D01*
X156400476Y-83256428D01*
X156400476Y-83018333D01*
X156448095Y-82827857D01*
X156495714Y-82732619D01*
X156543333Y-82685000D01*
X156638571Y-82637380D01*
X158559523Y-81097380D02*
X157988095Y-81097380D01*
X158273809Y-81097380D02*
X158273809Y-80097380D01*
X158178571Y-80240238D01*
X158083333Y-80335476D01*
X157988095Y-80383095D01*
X158892857Y-80097380D02*
X159559523Y-80097380D01*
X159130952Y-81097380D01*
X174228095Y-80097380D02*
X173751904Y-80097380D01*
X173704285Y-80573571D01*
X173751904Y-80525952D01*
X173847142Y-80478333D01*
X174085238Y-80478333D01*
X174180476Y-80525952D01*
X174228095Y-80573571D01*
X174275714Y-80668809D01*
X174275714Y-80906904D01*
X174228095Y-81002142D01*
X174180476Y-81049761D01*
X174085238Y-81097380D01*
X173847142Y-81097380D01*
X173751904Y-81049761D01*
X173704285Y-81002142D01*
X174180476Y-82637380D02*
X173990000Y-82637380D01*
X173894761Y-82685000D01*
X173847142Y-82732619D01*
X173751904Y-82875476D01*
X173704285Y-83065952D01*
X173704285Y-83446904D01*
X173751904Y-83542142D01*
X173799523Y-83589761D01*
X173894761Y-83637380D01*
X174085238Y-83637380D01*
X174180476Y-83589761D01*
X174228095Y-83542142D01*
X174275714Y-83446904D01*
X174275714Y-83208809D01*
X174228095Y-83113571D01*
X174180476Y-83065952D01*
X174085238Y-83018333D01*
X173894761Y-83018333D01*
X173799523Y-83065952D01*
X173751904Y-83113571D01*
X173704285Y-83208809D01*
X168719523Y-81097380D02*
X168910000Y-81097380D01*
X169005238Y-81049761D01*
X169052857Y-81002142D01*
X169148095Y-80859285D01*
X169195714Y-80668809D01*
X169195714Y-80287857D01*
X169148095Y-80192619D01*
X169100476Y-80145000D01*
X169005238Y-80097380D01*
X168814761Y-80097380D01*
X168719523Y-80145000D01*
X168671904Y-80192619D01*
X168624285Y-80287857D01*
X168624285Y-80525952D01*
X168671904Y-80621190D01*
X168719523Y-80668809D01*
X168814761Y-80716428D01*
X169005238Y-80716428D01*
X169100476Y-80668809D01*
X169148095Y-80621190D01*
X169195714Y-80525952D01*
X176196666Y-80097380D02*
X176815714Y-80097380D01*
X176482380Y-80478333D01*
X176625238Y-80478333D01*
X176720476Y-80525952D01*
X176768095Y-80573571D01*
X176815714Y-80668809D01*
X176815714Y-80906904D01*
X176768095Y-81002142D01*
X176720476Y-81049761D01*
X176625238Y-81097380D01*
X176339523Y-81097380D01*
X176244285Y-81049761D01*
X176196666Y-81002142D01*
X158559523Y-83637380D02*
X157988095Y-83637380D01*
X158273809Y-83637380D02*
X158273809Y-82637380D01*
X158178571Y-82780238D01*
X158083333Y-82875476D01*
X157988095Y-82923095D01*
X159130952Y-83065952D02*
X159035714Y-83018333D01*
X158988095Y-82970714D01*
X158940476Y-82875476D01*
X158940476Y-82827857D01*
X158988095Y-82732619D01*
X159035714Y-82685000D01*
X159130952Y-82637380D01*
X159321428Y-82637380D01*
X159416666Y-82685000D01*
X159464285Y-82732619D01*
X159511904Y-82827857D01*
X159511904Y-82875476D01*
X159464285Y-82970714D01*
X159416666Y-83018333D01*
X159321428Y-83065952D01*
X159130952Y-83065952D01*
X159035714Y-83113571D01*
X158988095Y-83161190D01*
X158940476Y-83256428D01*
X158940476Y-83446904D01*
X158988095Y-83542142D01*
X159035714Y-83589761D01*
X159130952Y-83637380D01*
X159321428Y-83637380D01*
X159416666Y-83589761D01*
X159464285Y-83542142D01*
X159511904Y-83446904D01*
X159511904Y-83256428D01*
X159464285Y-83161190D01*
X159416666Y-83113571D01*
X159321428Y-83065952D01*
X163639523Y-83637380D02*
X163068095Y-83637380D01*
X163353809Y-83637380D02*
X163353809Y-82637380D01*
X163258571Y-82780238D01*
X163163333Y-82875476D01*
X163068095Y-82923095D01*
X164496666Y-82970714D02*
X164496666Y-83637380D01*
X164258571Y-82589761D02*
X164020476Y-83304047D01*
X164639523Y-83304047D01*
X161099523Y-81097380D02*
X160528095Y-81097380D01*
X160813809Y-81097380D02*
X160813809Y-80097380D01*
X160718571Y-80240238D01*
X160623333Y-80335476D01*
X160528095Y-80383095D01*
X162004285Y-80097380D02*
X161528095Y-80097380D01*
X161480476Y-80573571D01*
X161528095Y-80525952D01*
X161623333Y-80478333D01*
X161861428Y-80478333D01*
X161956666Y-80525952D01*
X162004285Y-80573571D01*
X162051904Y-80668809D01*
X162051904Y-80906904D01*
X162004285Y-81002142D01*
X161956666Y-81049761D01*
X161861428Y-81097380D01*
X161623333Y-81097380D01*
X161528095Y-81049761D01*
X161480476Y-81002142D01*
X161099523Y-83637380D02*
X160528095Y-83637380D01*
X160813809Y-83637380D02*
X160813809Y-82637380D01*
X160718571Y-82780238D01*
X160623333Y-82875476D01*
X160528095Y-82923095D01*
X161956666Y-82637380D02*
X161766190Y-82637380D01*
X161670952Y-82685000D01*
X161623333Y-82732619D01*
X161528095Y-82875476D01*
X161480476Y-83065952D01*
X161480476Y-83446904D01*
X161528095Y-83542142D01*
X161575714Y-83589761D01*
X161670952Y-83637380D01*
X161861428Y-83637380D01*
X161956666Y-83589761D01*
X162004285Y-83542142D01*
X162051904Y-83446904D01*
X162051904Y-83208809D01*
X162004285Y-83113571D01*
X161956666Y-83065952D01*
X161861428Y-83018333D01*
X161670952Y-83018333D01*
X161575714Y-83065952D01*
X161528095Y-83113571D01*
X161480476Y-83208809D01*
X166179523Y-81097380D02*
X165608095Y-81097380D01*
X165893809Y-81097380D02*
X165893809Y-80097380D01*
X165798571Y-80240238D01*
X165703333Y-80335476D01*
X165608095Y-80383095D01*
X167131904Y-81097380D02*
X166560476Y-81097380D01*
X166846190Y-81097380D02*
X166846190Y-80097380D01*
X166750952Y-80240238D01*
X166655714Y-80335476D01*
X166560476Y-80383095D01*
X166179523Y-83637380D02*
X165608095Y-83637380D01*
X165893809Y-83637380D02*
X165893809Y-82637380D01*
X165798571Y-82780238D01*
X165703333Y-82875476D01*
X165608095Y-82923095D01*
X166560476Y-82732619D02*
X166608095Y-82685000D01*
X166703333Y-82637380D01*
X166941428Y-82637380D01*
X167036666Y-82685000D01*
X167084285Y-82732619D01*
X167131904Y-82827857D01*
X167131904Y-82923095D01*
X167084285Y-83065952D01*
X166512857Y-83637380D01*
X167131904Y-83637380D01*
X178784285Y-82732619D02*
X178831904Y-82685000D01*
X178927142Y-82637380D01*
X179165238Y-82637380D01*
X179260476Y-82685000D01*
X179308095Y-82732619D01*
X179355714Y-82827857D01*
X179355714Y-82923095D01*
X179308095Y-83065952D01*
X178736666Y-83637380D01*
X179355714Y-83637380D01*
X176720476Y-82970714D02*
X176720476Y-83637380D01*
X176482380Y-82589761D02*
X176244285Y-83304047D01*
X176863333Y-83304047D01*
X171116666Y-80097380D02*
X171783333Y-80097380D01*
X171354761Y-81097380D01*
X171354761Y-83065952D02*
X171259523Y-83018333D01*
X171211904Y-82970714D01*
X171164285Y-82875476D01*
X171164285Y-82827857D01*
X171211904Y-82732619D01*
X171259523Y-82685000D01*
X171354761Y-82637380D01*
X171545238Y-82637380D01*
X171640476Y-82685000D01*
X171688095Y-82732619D01*
X171735714Y-82827857D01*
X171735714Y-82875476D01*
X171688095Y-82970714D01*
X171640476Y-83018333D01*
X171545238Y-83065952D01*
X171354761Y-83065952D01*
X171259523Y-83113571D01*
X171211904Y-83161190D01*
X171164285Y-83256428D01*
X171164285Y-83446904D01*
X171211904Y-83542142D01*
X171259523Y-83589761D01*
X171354761Y-83637380D01*
X171545238Y-83637380D01*
X171640476Y-83589761D01*
X171688095Y-83542142D01*
X171735714Y-83446904D01*
X171735714Y-83256428D01*
X171688095Y-83161190D01*
X171640476Y-83113571D01*
X171545238Y-83065952D01*
X168719523Y-83637380D02*
X168148095Y-83637380D01*
X168433809Y-83637380D02*
X168433809Y-82637380D01*
X168338571Y-82780238D01*
X168243333Y-82875476D01*
X168148095Y-82923095D01*
X169338571Y-82637380D02*
X169433809Y-82637380D01*
X169529047Y-82685000D01*
X169576666Y-82732619D01*
X169624285Y-82827857D01*
X169671904Y-83018333D01*
X169671904Y-83256428D01*
X169624285Y-83446904D01*
X169576666Y-83542142D01*
X169529047Y-83589761D01*
X169433809Y-83637380D01*
X169338571Y-83637380D01*
X169243333Y-83589761D01*
X169195714Y-83542142D01*
X169148095Y-83446904D01*
X169100476Y-83256428D01*
X169100476Y-83018333D01*
X169148095Y-82827857D01*
X169195714Y-82732619D01*
X169243333Y-82685000D01*
X169338571Y-82637380D01*
X112268095Y-80192619D02*
X112315714Y-80145000D01*
X112410952Y-80097380D01*
X112649047Y-80097380D01*
X112744285Y-80145000D01*
X112791904Y-80192619D01*
X112839523Y-80287857D01*
X112839523Y-80383095D01*
X112791904Y-80525952D01*
X112220476Y-81097380D01*
X112839523Y-81097380D01*
X113315714Y-81097380D02*
X113506190Y-81097380D01*
X113601428Y-81049761D01*
X113649047Y-81002142D01*
X113744285Y-80859285D01*
X113791904Y-80668809D01*
X113791904Y-80287857D01*
X113744285Y-80192619D01*
X113696666Y-80145000D01*
X113601428Y-80097380D01*
X113410952Y-80097380D01*
X113315714Y-80145000D01*
X113268095Y-80192619D01*
X113220476Y-80287857D01*
X113220476Y-80525952D01*
X113268095Y-80621190D01*
X113315714Y-80668809D01*
X113410952Y-80716428D01*
X113601428Y-80716428D01*
X113696666Y-80668809D01*
X113744285Y-80621190D01*
X113791904Y-80525952D01*
X112220476Y-82637380D02*
X112839523Y-82637380D01*
X112506190Y-83018333D01*
X112649047Y-83018333D01*
X112744285Y-83065952D01*
X112791904Y-83113571D01*
X112839523Y-83208809D01*
X112839523Y-83446904D01*
X112791904Y-83542142D01*
X112744285Y-83589761D01*
X112649047Y-83637380D01*
X112363333Y-83637380D01*
X112268095Y-83589761D01*
X112220476Y-83542142D01*
X113458571Y-82637380D02*
X113553809Y-82637380D01*
X113649047Y-82685000D01*
X113696666Y-82732619D01*
X113744285Y-82827857D01*
X113791904Y-83018333D01*
X113791904Y-83256428D01*
X113744285Y-83446904D01*
X113696666Y-83542142D01*
X113649047Y-83589761D01*
X113553809Y-83637380D01*
X113458571Y-83637380D01*
X113363333Y-83589761D01*
X113315714Y-83542142D01*
X113268095Y-83446904D01*
X113220476Y-83256428D01*
X113220476Y-83018333D01*
X113268095Y-82827857D01*
X113315714Y-82732619D01*
X113363333Y-82685000D01*
X113458571Y-82637380D01*
X114808095Y-80192619D02*
X114855714Y-80145000D01*
X114950952Y-80097380D01*
X115189047Y-80097380D01*
X115284285Y-80145000D01*
X115331904Y-80192619D01*
X115379523Y-80287857D01*
X115379523Y-80383095D01*
X115331904Y-80525952D01*
X114760476Y-81097380D01*
X115379523Y-81097380D01*
X115712857Y-80097380D02*
X116379523Y-80097380D01*
X115950952Y-81097380D01*
X114808095Y-82732619D02*
X114855714Y-82685000D01*
X114950952Y-82637380D01*
X115189047Y-82637380D01*
X115284285Y-82685000D01*
X115331904Y-82732619D01*
X115379523Y-82827857D01*
X115379523Y-82923095D01*
X115331904Y-83065952D01*
X114760476Y-83637380D01*
X115379523Y-83637380D01*
X115950952Y-83065952D02*
X115855714Y-83018333D01*
X115808095Y-82970714D01*
X115760476Y-82875476D01*
X115760476Y-82827857D01*
X115808095Y-82732619D01*
X115855714Y-82685000D01*
X115950952Y-82637380D01*
X116141428Y-82637380D01*
X116236666Y-82685000D01*
X116284285Y-82732619D01*
X116331904Y-82827857D01*
X116331904Y-82875476D01*
X116284285Y-82970714D01*
X116236666Y-83018333D01*
X116141428Y-83065952D01*
X115950952Y-83065952D01*
X115855714Y-83113571D01*
X115808095Y-83161190D01*
X115760476Y-83256428D01*
X115760476Y-83446904D01*
X115808095Y-83542142D01*
X115855714Y-83589761D01*
X115950952Y-83637380D01*
X116141428Y-83637380D01*
X116236666Y-83589761D01*
X116284285Y-83542142D01*
X116331904Y-83446904D01*
X116331904Y-83256428D01*
X116284285Y-83161190D01*
X116236666Y-83113571D01*
X116141428Y-83065952D01*
X117348095Y-80192619D02*
X117395714Y-80145000D01*
X117490952Y-80097380D01*
X117729047Y-80097380D01*
X117824285Y-80145000D01*
X117871904Y-80192619D01*
X117919523Y-80287857D01*
X117919523Y-80383095D01*
X117871904Y-80525952D01*
X117300476Y-81097380D01*
X117919523Y-81097380D01*
X118824285Y-80097380D02*
X118348095Y-80097380D01*
X118300476Y-80573571D01*
X118348095Y-80525952D01*
X118443333Y-80478333D01*
X118681428Y-80478333D01*
X118776666Y-80525952D01*
X118824285Y-80573571D01*
X118871904Y-80668809D01*
X118871904Y-80906904D01*
X118824285Y-81002142D01*
X118776666Y-81049761D01*
X118681428Y-81097380D01*
X118443333Y-81097380D01*
X118348095Y-81049761D01*
X118300476Y-81002142D01*
X117348095Y-82732619D02*
X117395714Y-82685000D01*
X117490952Y-82637380D01*
X117729047Y-82637380D01*
X117824285Y-82685000D01*
X117871904Y-82732619D01*
X117919523Y-82827857D01*
X117919523Y-82923095D01*
X117871904Y-83065952D01*
X117300476Y-83637380D01*
X117919523Y-83637380D01*
X118776666Y-82637380D02*
X118586190Y-82637380D01*
X118490952Y-82685000D01*
X118443333Y-82732619D01*
X118348095Y-82875476D01*
X118300476Y-83065952D01*
X118300476Y-83446904D01*
X118348095Y-83542142D01*
X118395714Y-83589761D01*
X118490952Y-83637380D01*
X118681428Y-83637380D01*
X118776666Y-83589761D01*
X118824285Y-83542142D01*
X118871904Y-83446904D01*
X118871904Y-83208809D01*
X118824285Y-83113571D01*
X118776666Y-83065952D01*
X118681428Y-83018333D01*
X118490952Y-83018333D01*
X118395714Y-83065952D01*
X118348095Y-83113571D01*
X118300476Y-83208809D01*
X119888095Y-80192619D02*
X119935714Y-80145000D01*
X120030952Y-80097380D01*
X120269047Y-80097380D01*
X120364285Y-80145000D01*
X120411904Y-80192619D01*
X120459523Y-80287857D01*
X120459523Y-80383095D01*
X120411904Y-80525952D01*
X119840476Y-81097380D01*
X120459523Y-81097380D01*
X120792857Y-80097380D02*
X121411904Y-80097380D01*
X121078571Y-80478333D01*
X121221428Y-80478333D01*
X121316666Y-80525952D01*
X121364285Y-80573571D01*
X121411904Y-80668809D01*
X121411904Y-80906904D01*
X121364285Y-81002142D01*
X121316666Y-81049761D01*
X121221428Y-81097380D01*
X120935714Y-81097380D01*
X120840476Y-81049761D01*
X120792857Y-81002142D01*
X119888095Y-82732619D02*
X119935714Y-82685000D01*
X120030952Y-82637380D01*
X120269047Y-82637380D01*
X120364285Y-82685000D01*
X120411904Y-82732619D01*
X120459523Y-82827857D01*
X120459523Y-82923095D01*
X120411904Y-83065952D01*
X119840476Y-83637380D01*
X120459523Y-83637380D01*
X121316666Y-82970714D02*
X121316666Y-83637380D01*
X121078571Y-82589761D02*
X120840476Y-83304047D01*
X121459523Y-83304047D01*
X122428095Y-80192619D02*
X122475714Y-80145000D01*
X122570952Y-80097380D01*
X122809047Y-80097380D01*
X122904285Y-80145000D01*
X122951904Y-80192619D01*
X122999523Y-80287857D01*
X122999523Y-80383095D01*
X122951904Y-80525952D01*
X122380476Y-81097380D01*
X122999523Y-81097380D01*
X123951904Y-81097380D02*
X123380476Y-81097380D01*
X123666190Y-81097380D02*
X123666190Y-80097380D01*
X123570952Y-80240238D01*
X123475714Y-80335476D01*
X123380476Y-80383095D01*
X122428095Y-82732619D02*
X122475714Y-82685000D01*
X122570952Y-82637380D01*
X122809047Y-82637380D01*
X122904285Y-82685000D01*
X122951904Y-82732619D01*
X122999523Y-82827857D01*
X122999523Y-82923095D01*
X122951904Y-83065952D01*
X122380476Y-83637380D01*
X122999523Y-83637380D01*
X123380476Y-82732619D02*
X123428095Y-82685000D01*
X123523333Y-82637380D01*
X123761428Y-82637380D01*
X123856666Y-82685000D01*
X123904285Y-82732619D01*
X123951904Y-82827857D01*
X123951904Y-82923095D01*
X123904285Y-83065952D01*
X123332857Y-83637380D01*
X123951904Y-83637380D01*
X125539523Y-81097380D02*
X124968095Y-81097380D01*
X125253809Y-81097380D02*
X125253809Y-80097380D01*
X125158571Y-80240238D01*
X125063333Y-80335476D01*
X124968095Y-80383095D01*
X126015714Y-81097380D02*
X126206190Y-81097380D01*
X126301428Y-81049761D01*
X126349047Y-81002142D01*
X126444285Y-80859285D01*
X126491904Y-80668809D01*
X126491904Y-80287857D01*
X126444285Y-80192619D01*
X126396666Y-80145000D01*
X126301428Y-80097380D01*
X126110952Y-80097380D01*
X126015714Y-80145000D01*
X125968095Y-80192619D01*
X125920476Y-80287857D01*
X125920476Y-80525952D01*
X125968095Y-80621190D01*
X126015714Y-80668809D01*
X126110952Y-80716428D01*
X126301428Y-80716428D01*
X126396666Y-80668809D01*
X126444285Y-80621190D01*
X126491904Y-80525952D01*
X124968095Y-82732619D02*
X125015714Y-82685000D01*
X125110952Y-82637380D01*
X125349047Y-82637380D01*
X125444285Y-82685000D01*
X125491904Y-82732619D01*
X125539523Y-82827857D01*
X125539523Y-82923095D01*
X125491904Y-83065952D01*
X124920476Y-83637380D01*
X125539523Y-83637380D01*
X126158571Y-82637380D02*
X126253809Y-82637380D01*
X126349047Y-82685000D01*
X126396666Y-82732619D01*
X126444285Y-82827857D01*
X126491904Y-83018333D01*
X126491904Y-83256428D01*
X126444285Y-83446904D01*
X126396666Y-83542142D01*
X126349047Y-83589761D01*
X126253809Y-83637380D01*
X126158571Y-83637380D01*
X126063333Y-83589761D01*
X126015714Y-83542142D01*
X125968095Y-83446904D01*
X125920476Y-83256428D01*
X125920476Y-83018333D01*
X125968095Y-82827857D01*
X126015714Y-82732619D01*
X126063333Y-82685000D01*
X126158571Y-82637380D01*
X128079523Y-81097380D02*
X127508095Y-81097380D01*
X127793809Y-81097380D02*
X127793809Y-80097380D01*
X127698571Y-80240238D01*
X127603333Y-80335476D01*
X127508095Y-80383095D01*
X128412857Y-80097380D02*
X129079523Y-80097380D01*
X128650952Y-81097380D01*
X128079523Y-83637380D02*
X127508095Y-83637380D01*
X127793809Y-83637380D02*
X127793809Y-82637380D01*
X127698571Y-82780238D01*
X127603333Y-82875476D01*
X127508095Y-82923095D01*
X128650952Y-83065952D02*
X128555714Y-83018333D01*
X128508095Y-82970714D01*
X128460476Y-82875476D01*
X128460476Y-82827857D01*
X128508095Y-82732619D01*
X128555714Y-82685000D01*
X128650952Y-82637380D01*
X128841428Y-82637380D01*
X128936666Y-82685000D01*
X128984285Y-82732619D01*
X129031904Y-82827857D01*
X129031904Y-82875476D01*
X128984285Y-82970714D01*
X128936666Y-83018333D01*
X128841428Y-83065952D01*
X128650952Y-83065952D01*
X128555714Y-83113571D01*
X128508095Y-83161190D01*
X128460476Y-83256428D01*
X128460476Y-83446904D01*
X128508095Y-83542142D01*
X128555714Y-83589761D01*
X128650952Y-83637380D01*
X128841428Y-83637380D01*
X128936666Y-83589761D01*
X128984285Y-83542142D01*
X129031904Y-83446904D01*
X129031904Y-83256428D01*
X128984285Y-83161190D01*
X128936666Y-83113571D01*
X128841428Y-83065952D01*
X130619523Y-81097380D02*
X130048095Y-81097380D01*
X130333809Y-81097380D02*
X130333809Y-80097380D01*
X130238571Y-80240238D01*
X130143333Y-80335476D01*
X130048095Y-80383095D01*
X131524285Y-80097380D02*
X131048095Y-80097380D01*
X131000476Y-80573571D01*
X131048095Y-80525952D01*
X131143333Y-80478333D01*
X131381428Y-80478333D01*
X131476666Y-80525952D01*
X131524285Y-80573571D01*
X131571904Y-80668809D01*
X131571904Y-80906904D01*
X131524285Y-81002142D01*
X131476666Y-81049761D01*
X131381428Y-81097380D01*
X131143333Y-81097380D01*
X131048095Y-81049761D01*
X131000476Y-81002142D01*
X130619523Y-83637380D02*
X130048095Y-83637380D01*
X130333809Y-83637380D02*
X130333809Y-82637380D01*
X130238571Y-82780238D01*
X130143333Y-82875476D01*
X130048095Y-82923095D01*
X131476666Y-82637380D02*
X131286190Y-82637380D01*
X131190952Y-82685000D01*
X131143333Y-82732619D01*
X131048095Y-82875476D01*
X131000476Y-83065952D01*
X131000476Y-83446904D01*
X131048095Y-83542142D01*
X131095714Y-83589761D01*
X131190952Y-83637380D01*
X131381428Y-83637380D01*
X131476666Y-83589761D01*
X131524285Y-83542142D01*
X131571904Y-83446904D01*
X131571904Y-83208809D01*
X131524285Y-83113571D01*
X131476666Y-83065952D01*
X131381428Y-83018333D01*
X131190952Y-83018333D01*
X131095714Y-83065952D01*
X131048095Y-83113571D01*
X131000476Y-83208809D01*
X133159523Y-81097380D02*
X132588095Y-81097380D01*
X132873809Y-81097380D02*
X132873809Y-80097380D01*
X132778571Y-80240238D01*
X132683333Y-80335476D01*
X132588095Y-80383095D01*
X133492857Y-80097380D02*
X134111904Y-80097380D01*
X133778571Y-80478333D01*
X133921428Y-80478333D01*
X134016666Y-80525952D01*
X134064285Y-80573571D01*
X134111904Y-80668809D01*
X134111904Y-80906904D01*
X134064285Y-81002142D01*
X134016666Y-81049761D01*
X133921428Y-81097380D01*
X133635714Y-81097380D01*
X133540476Y-81049761D01*
X133492857Y-81002142D01*
X133159523Y-83637380D02*
X132588095Y-83637380D01*
X132873809Y-83637380D02*
X132873809Y-82637380D01*
X132778571Y-82780238D01*
X132683333Y-82875476D01*
X132588095Y-82923095D01*
X134016666Y-82970714D02*
X134016666Y-83637380D01*
X133778571Y-82589761D02*
X133540476Y-83304047D01*
X134159523Y-83304047D01*
X135699523Y-81097380D02*
X135128095Y-81097380D01*
X135413809Y-81097380D02*
X135413809Y-80097380D01*
X135318571Y-80240238D01*
X135223333Y-80335476D01*
X135128095Y-80383095D01*
X136651904Y-81097380D02*
X136080476Y-81097380D01*
X136366190Y-81097380D02*
X136366190Y-80097380D01*
X136270952Y-80240238D01*
X136175714Y-80335476D01*
X136080476Y-80383095D01*
X135699523Y-83637380D02*
X135128095Y-83637380D01*
X135413809Y-83637380D02*
X135413809Y-82637380D01*
X135318571Y-82780238D01*
X135223333Y-82875476D01*
X135128095Y-82923095D01*
X136080476Y-82732619D02*
X136128095Y-82685000D01*
X136223333Y-82637380D01*
X136461428Y-82637380D01*
X136556666Y-82685000D01*
X136604285Y-82732619D01*
X136651904Y-82827857D01*
X136651904Y-82923095D01*
X136604285Y-83065952D01*
X136032857Y-83637380D01*
X136651904Y-83637380D01*
X138239523Y-81097380D02*
X138430000Y-81097380D01*
X138525238Y-81049761D01*
X138572857Y-81002142D01*
X138668095Y-80859285D01*
X138715714Y-80668809D01*
X138715714Y-80287857D01*
X138668095Y-80192619D01*
X138620476Y-80145000D01*
X138525238Y-80097380D01*
X138334761Y-80097380D01*
X138239523Y-80145000D01*
X138191904Y-80192619D01*
X138144285Y-80287857D01*
X138144285Y-80525952D01*
X138191904Y-80621190D01*
X138239523Y-80668809D01*
X138334761Y-80716428D01*
X138525238Y-80716428D01*
X138620476Y-80668809D01*
X138668095Y-80621190D01*
X138715714Y-80525952D01*
X138239523Y-83637380D02*
X137668095Y-83637380D01*
X137953809Y-83637380D02*
X137953809Y-82637380D01*
X137858571Y-82780238D01*
X137763333Y-82875476D01*
X137668095Y-82923095D01*
X138858571Y-82637380D02*
X138953809Y-82637380D01*
X139049047Y-82685000D01*
X139096666Y-82732619D01*
X139144285Y-82827857D01*
X139191904Y-83018333D01*
X139191904Y-83256428D01*
X139144285Y-83446904D01*
X139096666Y-83542142D01*
X139049047Y-83589761D01*
X138953809Y-83637380D01*
X138858571Y-83637380D01*
X138763333Y-83589761D01*
X138715714Y-83542142D01*
X138668095Y-83446904D01*
X138620476Y-83256428D01*
X138620476Y-83018333D01*
X138668095Y-82827857D01*
X138715714Y-82732619D01*
X138763333Y-82685000D01*
X138858571Y-82637380D01*
X140636666Y-80097380D02*
X141303333Y-80097380D01*
X140874761Y-81097380D01*
X140874761Y-83065952D02*
X140779523Y-83018333D01*
X140731904Y-82970714D01*
X140684285Y-82875476D01*
X140684285Y-82827857D01*
X140731904Y-82732619D01*
X140779523Y-82685000D01*
X140874761Y-82637380D01*
X141065238Y-82637380D01*
X141160476Y-82685000D01*
X141208095Y-82732619D01*
X141255714Y-82827857D01*
X141255714Y-82875476D01*
X141208095Y-82970714D01*
X141160476Y-83018333D01*
X141065238Y-83065952D01*
X140874761Y-83065952D01*
X140779523Y-83113571D01*
X140731904Y-83161190D01*
X140684285Y-83256428D01*
X140684285Y-83446904D01*
X140731904Y-83542142D01*
X140779523Y-83589761D01*
X140874761Y-83637380D01*
X141065238Y-83637380D01*
X141160476Y-83589761D01*
X141208095Y-83542142D01*
X141255714Y-83446904D01*
X141255714Y-83256428D01*
X141208095Y-83161190D01*
X141160476Y-83113571D01*
X141065238Y-83065952D01*
X143748095Y-80097380D02*
X143271904Y-80097380D01*
X143224285Y-80573571D01*
X143271904Y-80525952D01*
X143367142Y-80478333D01*
X143605238Y-80478333D01*
X143700476Y-80525952D01*
X143748095Y-80573571D01*
X143795714Y-80668809D01*
X143795714Y-80906904D01*
X143748095Y-81002142D01*
X143700476Y-81049761D01*
X143605238Y-81097380D01*
X143367142Y-81097380D01*
X143271904Y-81049761D01*
X143224285Y-81002142D01*
X143700476Y-82637380D02*
X143510000Y-82637380D01*
X143414761Y-82685000D01*
X143367142Y-82732619D01*
X143271904Y-82875476D01*
X143224285Y-83065952D01*
X143224285Y-83446904D01*
X143271904Y-83542142D01*
X143319523Y-83589761D01*
X143414761Y-83637380D01*
X143605238Y-83637380D01*
X143700476Y-83589761D01*
X143748095Y-83542142D01*
X143795714Y-83446904D01*
X143795714Y-83208809D01*
X143748095Y-83113571D01*
X143700476Y-83065952D01*
X143605238Y-83018333D01*
X143414761Y-83018333D01*
X143319523Y-83065952D01*
X143271904Y-83113571D01*
X143224285Y-83208809D01*
X145716666Y-80097380D02*
X146335714Y-80097380D01*
X146002380Y-80478333D01*
X146145238Y-80478333D01*
X146240476Y-80525952D01*
X146288095Y-80573571D01*
X146335714Y-80668809D01*
X146335714Y-80906904D01*
X146288095Y-81002142D01*
X146240476Y-81049761D01*
X146145238Y-81097380D01*
X145859523Y-81097380D01*
X145764285Y-81049761D01*
X145716666Y-81002142D01*
X146240476Y-82970714D02*
X146240476Y-83637380D01*
X146002380Y-82589761D02*
X145764285Y-83304047D01*
X146383333Y-83304047D01*
X148304285Y-82732619D02*
X148351904Y-82685000D01*
X148447142Y-82637380D01*
X148685238Y-82637380D01*
X148780476Y-82685000D01*
X148828095Y-82732619D01*
X148875714Y-82827857D01*
X148875714Y-82923095D01*
X148828095Y-83065952D01*
X148256666Y-83637380D01*
X148875714Y-83637380D01*
X148875714Y-81097380D02*
X148304285Y-81097380D01*
X148590000Y-81097380D02*
X148590000Y-80097380D01*
X148494761Y-80240238D01*
X148399523Y-80335476D01*
X148304285Y-80383095D01*
X162330476Y-67619619D02*
X162378095Y-67572000D01*
X162473333Y-67524380D01*
X162711428Y-67524380D01*
X162806666Y-67572000D01*
X162854285Y-67619619D01*
X162901904Y-67714857D01*
X162901904Y-67810095D01*
X162854285Y-67952952D01*
X162282857Y-68524380D01*
X162901904Y-68524380D01*
X163520952Y-67524380D02*
X163616190Y-67524380D01*
X163711428Y-67572000D01*
X163759047Y-67619619D01*
X163806666Y-67714857D01*
X163854285Y-67905333D01*
X163854285Y-68143428D01*
X163806666Y-68333904D01*
X163759047Y-68429142D01*
X163711428Y-68476761D01*
X163616190Y-68524380D01*
X163520952Y-68524380D01*
X163425714Y-68476761D01*
X163378095Y-68429142D01*
X163330476Y-68333904D01*
X163282857Y-68143428D01*
X163282857Y-67905333D01*
X163330476Y-67714857D01*
X163378095Y-67619619D01*
X163425714Y-67572000D01*
X163520952Y-67524380D01*
X165044761Y-68524380D02*
X165044761Y-67524380D01*
X165425714Y-67524380D01*
X165520952Y-67572000D01*
X165568571Y-67619619D01*
X165616190Y-67714857D01*
X165616190Y-67857714D01*
X165568571Y-67952952D01*
X165520952Y-68000571D01*
X165425714Y-68048190D01*
X165044761Y-68048190D01*
X166044761Y-68524380D02*
X166044761Y-67524380D01*
X166520952Y-68524380D02*
X166520952Y-67524380D01*
X167092380Y-68524380D01*
X167092380Y-67524380D01*
X168520952Y-67524380D02*
X168616190Y-67524380D01*
X168711428Y-67572000D01*
X168759047Y-67619619D01*
X168806666Y-67714857D01*
X168854285Y-67905333D01*
X168854285Y-68143428D01*
X168806666Y-68333904D01*
X168759047Y-68429142D01*
X168711428Y-68476761D01*
X168616190Y-68524380D01*
X168520952Y-68524380D01*
X168425714Y-68476761D01*
X168378095Y-68429142D01*
X168330476Y-68333904D01*
X168282857Y-68143428D01*
X168282857Y-67905333D01*
X168330476Y-67714857D01*
X168378095Y-67619619D01*
X168425714Y-67572000D01*
X168520952Y-67524380D01*
X169282857Y-68429142D02*
X169330476Y-68476761D01*
X169282857Y-68524380D01*
X169235238Y-68476761D01*
X169282857Y-68429142D01*
X169282857Y-68524380D01*
X170235238Y-67524380D02*
X169759047Y-67524380D01*
X169711428Y-68000571D01*
X169759047Y-67952952D01*
X169854285Y-67905333D01*
X170092380Y-67905333D01*
X170187619Y-67952952D01*
X170235238Y-68000571D01*
X170282857Y-68095809D01*
X170282857Y-68333904D01*
X170235238Y-68429142D01*
X170187619Y-68476761D01*
X170092380Y-68524380D01*
X169854285Y-68524380D01*
X169759047Y-68476761D01*
X169711428Y-68429142D01*
X170711428Y-68524380D02*
X170711428Y-67857714D01*
X170711428Y-67952952D02*
X170759047Y-67905333D01*
X170854285Y-67857714D01*
X170997142Y-67857714D01*
X171092380Y-67905333D01*
X171140000Y-68000571D01*
X171140000Y-68524380D01*
X171140000Y-68000571D02*
X171187619Y-67905333D01*
X171282857Y-67857714D01*
X171425714Y-67857714D01*
X171520952Y-67905333D01*
X171568571Y-68000571D01*
X171568571Y-68524380D01*
X172044761Y-68524380D02*
X172044761Y-67857714D01*
X172044761Y-67952952D02*
X172092380Y-67905333D01*
X172187619Y-67857714D01*
X172330476Y-67857714D01*
X172425714Y-67905333D01*
X172473333Y-68000571D01*
X172473333Y-68524380D01*
X172473333Y-68000571D02*
X172520952Y-67905333D01*
X172616190Y-67857714D01*
X172759047Y-67857714D01*
X172854285Y-67905333D01*
X172901904Y-68000571D01*
X172901904Y-68524380D01*
X125452857Y-67524380D02*
X126071904Y-67524380D01*
X125738571Y-67905333D01*
X125881428Y-67905333D01*
X125976666Y-67952952D01*
X126024285Y-68000571D01*
X126071904Y-68095809D01*
X126071904Y-68333904D01*
X126024285Y-68429142D01*
X125976666Y-68476761D01*
X125881428Y-68524380D01*
X125595714Y-68524380D01*
X125500476Y-68476761D01*
X125452857Y-68429142D01*
X126690952Y-67524380D02*
X126786190Y-67524380D01*
X126881428Y-67572000D01*
X126929047Y-67619619D01*
X126976666Y-67714857D01*
X127024285Y-67905333D01*
X127024285Y-68143428D01*
X126976666Y-68333904D01*
X126929047Y-68429142D01*
X126881428Y-68476761D01*
X126786190Y-68524380D01*
X126690952Y-68524380D01*
X126595714Y-68476761D01*
X126548095Y-68429142D01*
X126500476Y-68333904D01*
X126452857Y-68143428D01*
X126452857Y-67905333D01*
X126500476Y-67714857D01*
X126548095Y-67619619D01*
X126595714Y-67572000D01*
X126690952Y-67524380D01*
X128214761Y-68524380D02*
X128214761Y-67524380D01*
X128595714Y-67524380D01*
X128690952Y-67572000D01*
X128738571Y-67619619D01*
X128786190Y-67714857D01*
X128786190Y-67857714D01*
X128738571Y-67952952D01*
X128690952Y-68000571D01*
X128595714Y-68048190D01*
X128214761Y-68048190D01*
X129214761Y-68524380D02*
X129214761Y-67524380D01*
X129690952Y-68524380D02*
X129690952Y-67524380D01*
X130262380Y-68524380D01*
X130262380Y-67524380D01*
X131690952Y-67524380D02*
X131786190Y-67524380D01*
X131881428Y-67572000D01*
X131929047Y-67619619D01*
X131976666Y-67714857D01*
X132024285Y-67905333D01*
X132024285Y-68143428D01*
X131976666Y-68333904D01*
X131929047Y-68429142D01*
X131881428Y-68476761D01*
X131786190Y-68524380D01*
X131690952Y-68524380D01*
X131595714Y-68476761D01*
X131548095Y-68429142D01*
X131500476Y-68333904D01*
X131452857Y-68143428D01*
X131452857Y-67905333D01*
X131500476Y-67714857D01*
X131548095Y-67619619D01*
X131595714Y-67572000D01*
X131690952Y-67524380D01*
X132452857Y-68429142D02*
X132500476Y-68476761D01*
X132452857Y-68524380D01*
X132405238Y-68476761D01*
X132452857Y-68429142D01*
X132452857Y-68524380D01*
X133405238Y-67524380D02*
X132929047Y-67524380D01*
X132881428Y-68000571D01*
X132929047Y-67952952D01*
X133024285Y-67905333D01*
X133262380Y-67905333D01*
X133357619Y-67952952D01*
X133405238Y-68000571D01*
X133452857Y-68095809D01*
X133452857Y-68333904D01*
X133405238Y-68429142D01*
X133357619Y-68476761D01*
X133262380Y-68524380D01*
X133024285Y-68524380D01*
X132929047Y-68476761D01*
X132881428Y-68429142D01*
X133881428Y-68524380D02*
X133881428Y-67857714D01*
X133881428Y-67952952D02*
X133929047Y-67905333D01*
X134024285Y-67857714D01*
X134167142Y-67857714D01*
X134262380Y-67905333D01*
X134310000Y-68000571D01*
X134310000Y-68524380D01*
X134310000Y-68000571D02*
X134357619Y-67905333D01*
X134452857Y-67857714D01*
X134595714Y-67857714D01*
X134690952Y-67905333D01*
X134738571Y-68000571D01*
X134738571Y-68524380D01*
X135214761Y-68524380D02*
X135214761Y-67857714D01*
X135214761Y-67952952D02*
X135262380Y-67905333D01*
X135357619Y-67857714D01*
X135500476Y-67857714D01*
X135595714Y-67905333D01*
X135643333Y-68000571D01*
X135643333Y-68524380D01*
X135643333Y-68000571D02*
X135690952Y-67905333D01*
X135786190Y-67857714D01*
X135929047Y-67857714D01*
X136024285Y-67905333D01*
X136071904Y-68000571D01*
X136071904Y-68524380D01*
D11*
X180400000Y-84395000D02*
X180400000Y-85725000D01*
X179070000Y-84395000D02*
X180400000Y-84395000D01*
X177800000Y-84395000D02*
X177800000Y-87055000D01*
X177800000Y-87055000D02*
X154880000Y-87055000D01*
X177800000Y-84395000D02*
X154880000Y-84395000D01*
X154880000Y-84395000D02*
X154880000Y-87055000D01*
X180400000Y-76775000D02*
X180400000Y-78105000D01*
X179070000Y-76775000D02*
X180400000Y-76775000D01*
X177800000Y-76775000D02*
X177800000Y-79435000D01*
X177800000Y-79435000D02*
X154880000Y-79435000D01*
X177800000Y-76775000D02*
X154880000Y-76775000D01*
X154880000Y-76775000D02*
X154880000Y-79435000D01*
X172800000Y-71150000D02*
X172800000Y-72350000D01*
X160990000Y-65350000D02*
X160990000Y-67090000D01*
X174290000Y-65350000D02*
X160990000Y-65350000D01*
X174290000Y-67090000D02*
X174290000Y-65350000D01*
X160990000Y-71150000D02*
X160990000Y-69810000D01*
X162480000Y-71150000D02*
X160990000Y-71150000D01*
X174290000Y-71150000D02*
X174290000Y-69810000D01*
X172800000Y-71150000D02*
X174290000Y-71150000D01*
X149920000Y-84395000D02*
X149920000Y-85725000D01*
X148590000Y-84395000D02*
X149920000Y-84395000D01*
X147320000Y-84395000D02*
X147320000Y-87055000D01*
X147320000Y-87055000D02*
X111700000Y-87055000D01*
X147320000Y-84395000D02*
X111700000Y-84395000D01*
X111700000Y-84395000D02*
X111700000Y-87055000D01*
X138470000Y-71150000D02*
X138470000Y-72350000D01*
X121660000Y-65350000D02*
X121660000Y-67090000D01*
X139960000Y-65350000D02*
X121660000Y-65350000D01*
X139960000Y-67090000D02*
X139960000Y-65350000D01*
X121660000Y-71150000D02*
X121660000Y-69810000D01*
X123150000Y-71150000D02*
X121660000Y-71150000D01*
X139960000Y-71150000D02*
X139960000Y-69810000D01*
X138470000Y-71150000D02*
X139960000Y-71150000D01*
X149920000Y-76775000D02*
X149920000Y-78105000D01*
X148590000Y-76775000D02*
X149920000Y-76775000D01*
X147320000Y-76775000D02*
X147320000Y-79435000D01*
X147320000Y-79435000D02*
X111700000Y-79435000D01*
X147320000Y-76775000D02*
X111700000Y-76775000D01*
X111700000Y-76775000D02*
X111700000Y-79435000D01*
M02*
