G04 #@! TF.GenerationSoftware,KiCad,Pcbnew,5.1.5-52549c5~86~ubuntu19.04.1*
G04 #@! TF.CreationDate,2020-05-21T23:18:28+10:00*
G04 #@! TF.ProjectId,ICM2_FrontPanel_Breakout,49434d32-5f46-4726-9f6e-7450616e656c,rev?*
G04 #@! TF.SameCoordinates,Original*
G04 #@! TF.FileFunction,Legend,Top*
G04 #@! TF.FilePolarity,Positive*
%FSLAX46Y46*%
G04 Gerber Fmt 4.6, Leading zero omitted, Abs format (unit mm)*
G04 Created by KiCad (PCBNEW 5.1.5-52549c5~86~ubuntu19.04.1) date 2020-05-21 23:18:28*
%MOMM*%
%LPD*%
G04 APERTURE LIST*
%ADD10C,0.312500*%
%ADD11C,0.120000*%
G04 APERTURE END LIST*
D10*
X116562839Y-78153976D02*
X116681886Y-78153976D01*
X116800934Y-78213500D01*
X116860458Y-78273023D01*
X116919982Y-78392071D01*
X116979505Y-78630166D01*
X116979505Y-78927785D01*
X116919982Y-79165880D01*
X116860458Y-79284928D01*
X116800934Y-79344452D01*
X116681886Y-79403976D01*
X116562839Y-79403976D01*
X116443791Y-79344452D01*
X116384267Y-79284928D01*
X116324744Y-79165880D01*
X116265220Y-78927785D01*
X116265220Y-78630166D01*
X116324744Y-78392071D01*
X116384267Y-78273023D01*
X116443791Y-78213500D01*
X116562839Y-78153976D01*
X117515220Y-79284928D02*
X117574744Y-79344452D01*
X117515220Y-79403976D01*
X117455696Y-79344452D01*
X117515220Y-79284928D01*
X117515220Y-79403976D01*
X118705696Y-78153976D02*
X118110458Y-78153976D01*
X118050934Y-78749214D01*
X118110458Y-78689690D01*
X118229505Y-78630166D01*
X118527125Y-78630166D01*
X118646172Y-78689690D01*
X118705696Y-78749214D01*
X118765220Y-78868261D01*
X118765220Y-79165880D01*
X118705696Y-79284928D01*
X118646172Y-79344452D01*
X118527125Y-79403976D01*
X118229505Y-79403976D01*
X118110458Y-79344452D01*
X118050934Y-79284928D01*
X119300934Y-79403976D02*
X119300934Y-78153976D01*
X119717601Y-79046833D01*
X120134267Y-78153976D01*
X120134267Y-79403976D01*
X120729505Y-79403976D02*
X120729505Y-78153976D01*
X121146172Y-79046833D01*
X121562839Y-78153976D01*
X121562839Y-79403976D01*
X116741410Y-80936714D02*
X116324744Y-80936714D01*
X116324744Y-81591476D02*
X116324744Y-80341476D01*
X116919982Y-80341476D01*
X117812839Y-80936714D02*
X117396172Y-80936714D01*
X117396172Y-81591476D02*
X117396172Y-80341476D01*
X117991410Y-80341476D01*
X119181886Y-81472428D02*
X119122363Y-81531952D01*
X118943791Y-81591476D01*
X118824744Y-81591476D01*
X118646172Y-81531952D01*
X118527125Y-81412904D01*
X118467601Y-81293857D01*
X118408077Y-81055761D01*
X118408077Y-80877190D01*
X118467601Y-80639095D01*
X118527125Y-80520047D01*
X118646172Y-80401000D01*
X118824744Y-80341476D01*
X118943791Y-80341476D01*
X119122363Y-80401000D01*
X119181886Y-80460523D01*
X116741410Y-83124214D02*
X116919982Y-83183738D01*
X116979505Y-83243261D01*
X117039029Y-83362309D01*
X117039029Y-83540880D01*
X116979505Y-83659928D01*
X116919982Y-83719452D01*
X116800934Y-83778976D01*
X116324744Y-83778976D01*
X116324744Y-82528976D01*
X116741410Y-82528976D01*
X116860458Y-82588500D01*
X116919982Y-82648023D01*
X116979505Y-82767071D01*
X116979505Y-82886119D01*
X116919982Y-83005166D01*
X116860458Y-83064690D01*
X116741410Y-83124214D01*
X116324744Y-83124214D01*
X118289029Y-83778976D02*
X117872363Y-83183738D01*
X117574744Y-83778976D02*
X117574744Y-82528976D01*
X118050934Y-82528976D01*
X118169982Y-82588500D01*
X118229505Y-82648023D01*
X118289029Y-82767071D01*
X118289029Y-82945642D01*
X118229505Y-83064690D01*
X118169982Y-83124214D01*
X118050934Y-83183738D01*
X117574744Y-83183738D01*
X118824744Y-83124214D02*
X119241410Y-83124214D01*
X119419982Y-83778976D02*
X118824744Y-83778976D01*
X118824744Y-82528976D01*
X119419982Y-82528976D01*
X119896172Y-83421833D02*
X120491410Y-83421833D01*
X119777125Y-83778976D02*
X120193791Y-82528976D01*
X120610458Y-83778976D01*
X121027125Y-83778976D02*
X121027125Y-82528976D01*
X121741410Y-83778976D02*
X121205696Y-83064690D01*
X121741410Y-82528976D02*
X121027125Y-83243261D01*
X122515220Y-82528976D02*
X122753315Y-82528976D01*
X122872363Y-82588500D01*
X122991410Y-82707547D01*
X123050934Y-82945642D01*
X123050934Y-83362309D01*
X122991410Y-83600404D01*
X122872363Y-83719452D01*
X122753315Y-83778976D01*
X122515220Y-83778976D01*
X122396172Y-83719452D01*
X122277125Y-83600404D01*
X122217601Y-83362309D01*
X122217601Y-82945642D01*
X122277125Y-82707547D01*
X122396172Y-82588500D01*
X122515220Y-82528976D01*
X123586648Y-82528976D02*
X123586648Y-83540880D01*
X123646172Y-83659928D01*
X123705696Y-83719452D01*
X123824744Y-83778976D01*
X124062839Y-83778976D01*
X124181886Y-83719452D01*
X124241410Y-83659928D01*
X124300934Y-83540880D01*
X124300934Y-82528976D01*
X124717601Y-82528976D02*
X125431886Y-82528976D01*
X125074744Y-83778976D02*
X125074744Y-82528976D01*
X169521839Y-78153976D02*
X169640886Y-78153976D01*
X169759934Y-78213500D01*
X169819458Y-78273023D01*
X169878982Y-78392071D01*
X169938505Y-78630166D01*
X169938505Y-78927785D01*
X169878982Y-79165880D01*
X169819458Y-79284928D01*
X169759934Y-79344452D01*
X169640886Y-79403976D01*
X169521839Y-79403976D01*
X169402791Y-79344452D01*
X169343267Y-79284928D01*
X169283744Y-79165880D01*
X169224220Y-78927785D01*
X169224220Y-78630166D01*
X169283744Y-78392071D01*
X169343267Y-78273023D01*
X169402791Y-78213500D01*
X169521839Y-78153976D01*
X170474220Y-79284928D02*
X170533744Y-79344452D01*
X170474220Y-79403976D01*
X170414696Y-79344452D01*
X170474220Y-79284928D01*
X170474220Y-79403976D01*
X171664696Y-78153976D02*
X171069458Y-78153976D01*
X171009934Y-78749214D01*
X171069458Y-78689690D01*
X171188505Y-78630166D01*
X171486125Y-78630166D01*
X171605172Y-78689690D01*
X171664696Y-78749214D01*
X171724220Y-78868261D01*
X171724220Y-79165880D01*
X171664696Y-79284928D01*
X171605172Y-79344452D01*
X171486125Y-79403976D01*
X171188505Y-79403976D01*
X171069458Y-79344452D01*
X171009934Y-79284928D01*
X172259934Y-79403976D02*
X172259934Y-78153976D01*
X172676601Y-79046833D01*
X173093267Y-78153976D01*
X173093267Y-79403976D01*
X173688505Y-79403976D02*
X173688505Y-78153976D01*
X174105172Y-79046833D01*
X174521839Y-78153976D01*
X174521839Y-79403976D01*
X169700410Y-80936714D02*
X169283744Y-80936714D01*
X169283744Y-81591476D02*
X169283744Y-80341476D01*
X169878982Y-80341476D01*
X170771839Y-80936714D02*
X170355172Y-80936714D01*
X170355172Y-81591476D02*
X170355172Y-80341476D01*
X170950410Y-80341476D01*
X172140886Y-81472428D02*
X172081363Y-81531952D01*
X171902791Y-81591476D01*
X171783744Y-81591476D01*
X171605172Y-81531952D01*
X171486125Y-81412904D01*
X171426601Y-81293857D01*
X171367077Y-81055761D01*
X171367077Y-80877190D01*
X171426601Y-80639095D01*
X171486125Y-80520047D01*
X171605172Y-80401000D01*
X171783744Y-80341476D01*
X171902791Y-80341476D01*
X172081363Y-80401000D01*
X172140886Y-80460523D01*
X169700410Y-83124214D02*
X169878982Y-83183738D01*
X169938505Y-83243261D01*
X169998029Y-83362309D01*
X169998029Y-83540880D01*
X169938505Y-83659928D01*
X169878982Y-83719452D01*
X169759934Y-83778976D01*
X169283744Y-83778976D01*
X169283744Y-82528976D01*
X169700410Y-82528976D01*
X169819458Y-82588500D01*
X169878982Y-82648023D01*
X169938505Y-82767071D01*
X169938505Y-82886119D01*
X169878982Y-83005166D01*
X169819458Y-83064690D01*
X169700410Y-83124214D01*
X169283744Y-83124214D01*
X171248029Y-83778976D02*
X170831363Y-83183738D01*
X170533744Y-83778976D02*
X170533744Y-82528976D01*
X171009934Y-82528976D01*
X171128982Y-82588500D01*
X171188505Y-82648023D01*
X171248029Y-82767071D01*
X171248029Y-82945642D01*
X171188505Y-83064690D01*
X171128982Y-83124214D01*
X171009934Y-83183738D01*
X170533744Y-83183738D01*
X171783744Y-83124214D02*
X172200410Y-83124214D01*
X172378982Y-83778976D02*
X171783744Y-83778976D01*
X171783744Y-82528976D01*
X172378982Y-82528976D01*
X172855172Y-83421833D02*
X173450410Y-83421833D01*
X172736125Y-83778976D02*
X173152791Y-82528976D01*
X173569458Y-83778976D01*
X173986125Y-83778976D02*
X173986125Y-82528976D01*
X174700410Y-83778976D02*
X174164696Y-83064690D01*
X174700410Y-82528976D02*
X173986125Y-83243261D01*
X175474220Y-82528976D02*
X175712315Y-82528976D01*
X175831363Y-82588500D01*
X175950410Y-82707547D01*
X176009934Y-82945642D01*
X176009934Y-83362309D01*
X175950410Y-83600404D01*
X175831363Y-83719452D01*
X175712315Y-83778976D01*
X175474220Y-83778976D01*
X175355172Y-83719452D01*
X175236125Y-83600404D01*
X175176601Y-83362309D01*
X175176601Y-82945642D01*
X175236125Y-82707547D01*
X175355172Y-82588500D01*
X175474220Y-82528976D01*
X176545648Y-82528976D02*
X176545648Y-83540880D01*
X176605172Y-83659928D01*
X176664696Y-83719452D01*
X176783744Y-83778976D01*
X177021839Y-83778976D01*
X177140886Y-83719452D01*
X177200410Y-83659928D01*
X177259934Y-83540880D01*
X177259934Y-82528976D01*
X177676601Y-82528976D02*
X178390886Y-82528976D01*
X178033744Y-83778976D02*
X178033744Y-82528976D01*
X177101619Y-76904523D02*
X177161142Y-76845000D01*
X177280190Y-76785476D01*
X177577809Y-76785476D01*
X177696857Y-76845000D01*
X177756380Y-76904523D01*
X177815904Y-77023571D01*
X177815904Y-77142619D01*
X177756380Y-77321190D01*
X177042095Y-78035476D01*
X177815904Y-78035476D01*
X178589714Y-76785476D02*
X178708761Y-76785476D01*
X178827809Y-76845000D01*
X178887333Y-76904523D01*
X178946857Y-77023571D01*
X179006380Y-77261666D01*
X179006380Y-77559285D01*
X178946857Y-77797380D01*
X178887333Y-77916428D01*
X178827809Y-77975952D01*
X178708761Y-78035476D01*
X178589714Y-78035476D01*
X178470666Y-77975952D01*
X178411142Y-77916428D01*
X178351619Y-77797380D01*
X178292095Y-77559285D01*
X178292095Y-77261666D01*
X178351619Y-77023571D01*
X178411142Y-76904523D01*
X178470666Y-76845000D01*
X178589714Y-76785476D01*
X142851142Y-85147476D02*
X142136857Y-85147476D01*
X142494000Y-85147476D02*
X142494000Y-83897476D01*
X142374952Y-84076047D01*
X142255904Y-84195095D01*
X142136857Y-84254619D01*
X136910095Y-76785476D02*
X137683904Y-76785476D01*
X137267238Y-77261666D01*
X137445809Y-77261666D01*
X137564857Y-77321190D01*
X137624380Y-77380714D01*
X137683904Y-77499761D01*
X137683904Y-77797380D01*
X137624380Y-77916428D01*
X137564857Y-77975952D01*
X137445809Y-78035476D01*
X137088666Y-78035476D01*
X136969619Y-77975952D01*
X136910095Y-77916428D01*
X138457714Y-76785476D02*
X138576761Y-76785476D01*
X138695809Y-76845000D01*
X138755333Y-76904523D01*
X138814857Y-77023571D01*
X138874380Y-77261666D01*
X138874380Y-77559285D01*
X138814857Y-77797380D01*
X138755333Y-77916428D01*
X138695809Y-77975952D01*
X138576761Y-78035476D01*
X138457714Y-78035476D01*
X138338666Y-77975952D01*
X138279142Y-77916428D01*
X138219619Y-77797380D01*
X138160095Y-77559285D01*
X138160095Y-77261666D01*
X138219619Y-77023571D01*
X138279142Y-76904523D01*
X138338666Y-76845000D01*
X138457714Y-76785476D01*
X84939142Y-85147476D02*
X84224857Y-85147476D01*
X84582000Y-85147476D02*
X84582000Y-83897476D01*
X84462952Y-84076047D01*
X84343904Y-84195095D01*
X84224857Y-84254619D01*
D11*
X165434000Y-83596000D02*
X165434000Y-84796000D01*
X153624000Y-77796000D02*
X153624000Y-79536000D01*
X166924000Y-77796000D02*
X153624000Y-77796000D01*
X166924000Y-79536000D02*
X166924000Y-77796000D01*
X153624000Y-83596000D02*
X153624000Y-82256000D01*
X155114000Y-83596000D02*
X153624000Y-83596000D01*
X166924000Y-83596000D02*
X166924000Y-82256000D01*
X165434000Y-83596000D02*
X166924000Y-83596000D01*
X112562000Y-83596000D02*
X112562000Y-84796000D01*
X95752000Y-77796000D02*
X95752000Y-79536000D01*
X114052000Y-77796000D02*
X95752000Y-77796000D01*
X114052000Y-79536000D02*
X114052000Y-77796000D01*
X95752000Y-83596000D02*
X95752000Y-82256000D01*
X97242000Y-83596000D02*
X95752000Y-83596000D01*
X114052000Y-83596000D02*
X114052000Y-82256000D01*
X112562000Y-83596000D02*
X114052000Y-83596000D01*
M02*
