G04 #@! TF.GenerationSoftware,KiCad,Pcbnew,5.1.5-52549c5~86~ubuntu19.04.1*
G04 #@! TF.CreationDate,2020-05-12T21:37:58+10:00*
G04 #@! TF.ProjectId,ICM2_FrontPanel_Breakout,49434d32-5f46-4726-9f6e-7450616e656c,rev?*
G04 #@! TF.SameCoordinates,Original*
G04 #@! TF.FileFunction,Copper,L1,Top*
G04 #@! TF.FilePolarity,Positive*
%FSLAX46Y46*%
G04 Gerber Fmt 4.6, Leading zero omitted, Abs format (unit mm)*
G04 Created by KiCad (PCBNEW 5.1.5-52549c5~86~ubuntu19.04.1) date 2020-05-12 21:37:58*
%MOMM*%
%LPD*%
G04 APERTURE LIST*
%ADD10O,1.700000X1.700000*%
%ADD11R,1.700000X1.700000*%
%ADD12R,0.300000X1.300000*%
%ADD13R,1.800000X2.200000*%
%ADD14C,0.800000*%
%ADD15C,0.250000*%
G04 APERTURE END LIST*
D10*
X156210000Y-85725000D03*
X158750000Y-85725000D03*
X161290000Y-85725000D03*
X163830000Y-85725000D03*
X166370000Y-85725000D03*
X168910000Y-85725000D03*
X171450000Y-85725000D03*
X173990000Y-85725000D03*
X176530000Y-85725000D03*
D11*
X179070000Y-85725000D03*
D10*
X156210000Y-78105000D03*
X158750000Y-78105000D03*
X161290000Y-78105000D03*
X163830000Y-78105000D03*
X166370000Y-78105000D03*
X168910000Y-78105000D03*
X171450000Y-78105000D03*
X173990000Y-78105000D03*
X176530000Y-78105000D03*
D11*
X179070000Y-78105000D03*
D12*
X162890000Y-71700000D03*
X163390000Y-71700000D03*
X163890000Y-71700000D03*
X164390000Y-71700000D03*
X164890000Y-71700000D03*
X165390000Y-71700000D03*
X165890000Y-71700000D03*
X166390000Y-71700000D03*
X166890000Y-71700000D03*
X167390000Y-71700000D03*
X167890000Y-71700000D03*
X168390000Y-71700000D03*
X168890000Y-71700000D03*
X169390000Y-71700000D03*
X169890000Y-71700000D03*
X170390000Y-71700000D03*
X170890000Y-71700000D03*
X171390000Y-71700000D03*
X171890000Y-71700000D03*
X172390000Y-71700000D03*
D13*
X174290000Y-68450000D03*
X160990000Y-68450000D03*
D10*
X113030000Y-85725000D03*
X115570000Y-85725000D03*
X118110000Y-85725000D03*
X120650000Y-85725000D03*
X123190000Y-85725000D03*
X125730000Y-85725000D03*
X128270000Y-85725000D03*
X130810000Y-85725000D03*
X133350000Y-85725000D03*
X135890000Y-85725000D03*
X138430000Y-85725000D03*
X140970000Y-85725000D03*
X143510000Y-85725000D03*
X146050000Y-85725000D03*
D11*
X148590000Y-85725000D03*
D12*
X123560000Y-71700000D03*
X124060000Y-71700000D03*
X124560000Y-71700000D03*
X125060000Y-71700000D03*
X125560000Y-71700000D03*
X126060000Y-71700000D03*
X126560000Y-71700000D03*
X127060000Y-71700000D03*
X127560000Y-71700000D03*
X128060000Y-71700000D03*
X128560000Y-71700000D03*
X129060000Y-71700000D03*
X129560000Y-71700000D03*
X130060000Y-71700000D03*
X130560000Y-71700000D03*
X131060000Y-71700000D03*
X131560000Y-71700000D03*
X132060000Y-71700000D03*
X132560000Y-71700000D03*
X133060000Y-71700000D03*
X133560000Y-71700000D03*
X134060000Y-71700000D03*
X134560000Y-71700000D03*
X135060000Y-71700000D03*
X135560000Y-71700000D03*
X136060000Y-71700000D03*
X136560000Y-71700000D03*
X137060000Y-71700000D03*
X137560000Y-71700000D03*
X138060000Y-71700000D03*
D13*
X139960000Y-68450000D03*
X121660000Y-68450000D03*
D10*
X113030000Y-78105000D03*
X115570000Y-78105000D03*
X118110000Y-78105000D03*
X120650000Y-78105000D03*
X123190000Y-78105000D03*
X125730000Y-78105000D03*
X128270000Y-78105000D03*
X130810000Y-78105000D03*
X133350000Y-78105000D03*
X135890000Y-78105000D03*
X138430000Y-78105000D03*
X140970000Y-78105000D03*
X143510000Y-78105000D03*
X146050000Y-78105000D03*
D11*
X148590000Y-78105000D03*
D14*
X122788900Y-71908900D03*
X125798300Y-70426600D03*
X126887200Y-70421600D03*
X128060000Y-72954100D03*
X135615400Y-70435700D03*
X137794200Y-74175500D03*
X126687500Y-74546100D03*
X127936200Y-70320500D03*
X128985200Y-70419600D03*
X135402900Y-73052300D03*
X136560000Y-69905100D03*
X138740800Y-70724700D03*
X162120700Y-71700000D03*
X163889900Y-70433200D03*
X170036700Y-74984700D03*
X170902500Y-73551100D03*
X172714900Y-73700600D03*
D15*
X124060000Y-70724700D02*
X123258500Y-70724700D01*
X123258500Y-70724700D02*
X122788900Y-71194300D01*
X122788900Y-71194300D02*
X122788900Y-71908900D01*
X124060000Y-71700000D02*
X124060000Y-70724700D01*
X115570000Y-78105000D02*
X116745300Y-78105000D01*
X125060000Y-71700000D02*
X125060000Y-70724700D01*
X125060000Y-70724700D02*
X124595300Y-70260000D01*
X124595300Y-70260000D02*
X123079500Y-70260000D01*
X123079500Y-70260000D02*
X120813200Y-72526300D01*
X120813200Y-72526300D02*
X120813200Y-74993300D01*
X120813200Y-74993300D02*
X118876800Y-76929700D01*
X118876800Y-76929700D02*
X117553200Y-76929700D01*
X117553200Y-76929700D02*
X116745300Y-77737600D01*
X116745300Y-77737600D02*
X116745300Y-78105000D01*
X126060000Y-71700000D02*
X126060000Y-70688300D01*
X126060000Y-70688300D02*
X125798300Y-70426600D01*
X127060000Y-71700000D02*
X127060000Y-70594400D01*
X127060000Y-70594400D02*
X126887200Y-70421600D01*
X128060000Y-72675300D02*
X128060000Y-72954100D01*
X128060000Y-71700000D02*
X128060000Y-72675300D01*
X125730000Y-76929700D02*
X129060000Y-73599700D01*
X129060000Y-73599700D02*
X129060000Y-71700000D01*
X125730000Y-78105000D02*
X125730000Y-76929700D01*
X130060000Y-72675300D02*
X130060000Y-74491500D01*
X130060000Y-74491500D02*
X128270000Y-76281500D01*
X128270000Y-76281500D02*
X128270000Y-76929700D01*
X130060000Y-71700000D02*
X130060000Y-72675300D01*
X128270000Y-78105000D02*
X128270000Y-76929700D01*
X131060000Y-72675300D02*
X131060000Y-76679700D01*
X131060000Y-76679700D02*
X130810000Y-76929700D01*
X131060000Y-71700000D02*
X131060000Y-72675300D01*
X130810000Y-78105000D02*
X130810000Y-76929700D01*
X132060000Y-71700000D02*
X132060000Y-75639700D01*
X132060000Y-75639700D02*
X133350000Y-76929700D01*
X133350000Y-78105000D02*
X133350000Y-76929700D01*
X133060000Y-71700000D02*
X133060000Y-73844100D01*
X133060000Y-73844100D02*
X135890000Y-76674100D01*
X135890000Y-76674100D02*
X135890000Y-78105000D01*
X134060000Y-71700000D02*
X134060000Y-73490900D01*
X134060000Y-73490900D02*
X138430000Y-77860900D01*
X138430000Y-77860900D02*
X138430000Y-78105000D01*
X135060000Y-70724700D02*
X135326400Y-70724700D01*
X135326400Y-70724700D02*
X135615400Y-70435700D01*
X135060000Y-71700000D02*
X135060000Y-70724700D01*
X136060000Y-72675300D02*
X137560200Y-74175500D01*
X137560200Y-74175500D02*
X137794200Y-74175500D01*
X136060000Y-71700000D02*
X136060000Y-72675300D01*
X146050000Y-78105000D02*
X144874700Y-78105000D01*
X137060000Y-71700000D02*
X137060000Y-72675300D01*
X137060000Y-72675300D02*
X137379600Y-72675300D01*
X137379600Y-72675300D02*
X142240000Y-77535700D01*
X142240000Y-77535700D02*
X142240000Y-78521900D01*
X142240000Y-78521900D02*
X142998400Y-79280300D01*
X142998400Y-79280300D02*
X144066800Y-79280300D01*
X144066800Y-79280300D02*
X144874700Y-78472400D01*
X144874700Y-78472400D02*
X144874700Y-78105000D01*
X147414700Y-78105000D02*
X147414700Y-77737600D01*
X147414700Y-77737600D02*
X146606800Y-76929700D01*
X146606800Y-76929700D02*
X142314400Y-76929700D01*
X142314400Y-76929700D02*
X138060000Y-72675300D01*
X148590000Y-78105000D02*
X147414700Y-78105000D01*
X138060000Y-71700000D02*
X138060000Y-72675300D01*
X123560000Y-71700000D02*
X123560000Y-72895700D01*
X123560000Y-72895700D02*
X119380000Y-77075700D01*
X119380000Y-77075700D02*
X119380000Y-78567000D01*
X119380000Y-78567000D02*
X113397300Y-84549700D01*
X113397300Y-84549700D02*
X113030000Y-84549700D01*
X113030000Y-85725000D02*
X113030000Y-84549700D01*
X124560000Y-71700000D02*
X124560000Y-74963100D01*
X124560000Y-74963100D02*
X121825300Y-77697800D01*
X121825300Y-77697800D02*
X121825300Y-78661700D01*
X121825300Y-78661700D02*
X115937300Y-84549700D01*
X115937300Y-84549700D02*
X115570000Y-84549700D01*
X115570000Y-85725000D02*
X115570000Y-84549700D01*
X118110000Y-85725000D02*
X118110000Y-84549700D01*
X125560000Y-71700000D02*
X125560000Y-76419500D01*
X125560000Y-76419500D02*
X124554700Y-77424800D01*
X124554700Y-77424800D02*
X124554700Y-78472300D01*
X124554700Y-78472300D02*
X118477300Y-84549700D01*
X118477300Y-84549700D02*
X118110000Y-84549700D01*
X126560000Y-71700000D02*
X126560000Y-74418600D01*
X126560000Y-74418600D02*
X126687500Y-74546100D01*
X127560000Y-71700000D02*
X127560000Y-70850400D01*
X127560000Y-70850400D02*
X127936200Y-70474200D01*
X127936200Y-70474200D02*
X127936200Y-70320500D01*
X128560000Y-71700000D02*
X128560000Y-70724700D01*
X128985200Y-70419600D02*
X128680100Y-70724700D01*
X128680100Y-70724700D02*
X128560000Y-70724700D01*
X128270000Y-85725000D02*
X128270000Y-84549700D01*
X129560000Y-71700000D02*
X129560000Y-74219300D01*
X129560000Y-74219300D02*
X127094700Y-76684600D01*
X127094700Y-76684600D02*
X127094700Y-83374400D01*
X127094700Y-83374400D02*
X128270000Y-84549700D01*
X130810000Y-85725000D02*
X130810000Y-84549700D01*
X130560000Y-71700000D02*
X130560000Y-74872500D01*
X130560000Y-74872500D02*
X129634700Y-75797800D01*
X129634700Y-75797800D02*
X129634700Y-83374400D01*
X129634700Y-83374400D02*
X130810000Y-84549700D01*
X131560000Y-71700000D02*
X131560000Y-76259300D01*
X131560000Y-76259300D02*
X132174700Y-76874000D01*
X132174700Y-76874000D02*
X132174700Y-83374400D01*
X132174700Y-83374400D02*
X133350000Y-84549700D01*
X133350000Y-85725000D02*
X133350000Y-84549700D01*
X132560000Y-71700000D02*
X132560000Y-74591500D01*
X132560000Y-74591500D02*
X134714700Y-76746200D01*
X134714700Y-76746200D02*
X134714700Y-83374400D01*
X134714700Y-83374400D02*
X135890000Y-84549700D01*
X135890000Y-85725000D02*
X135890000Y-84549700D01*
X133560000Y-72675300D02*
X133560000Y-73707100D01*
X133560000Y-73707100D02*
X137254700Y-77401800D01*
X137254700Y-77401800D02*
X137254700Y-83374400D01*
X137254700Y-83374400D02*
X138430000Y-84549700D01*
X133560000Y-71700000D02*
X133560000Y-72675300D01*
X138430000Y-85725000D02*
X138430000Y-84549700D01*
X140970000Y-85725000D02*
X140970000Y-84549700D01*
X134560000Y-71700000D02*
X134560000Y-73243900D01*
X134560000Y-73243900D02*
X137763400Y-76447300D01*
X137763400Y-76447300D02*
X138489700Y-76447300D01*
X138489700Y-76447300D02*
X139794700Y-77752300D01*
X139794700Y-77752300D02*
X139794700Y-83374400D01*
X139794700Y-83374400D02*
X140970000Y-84549700D01*
X135560000Y-72675300D02*
X135560000Y-72895200D01*
X135560000Y-72895200D02*
X135402900Y-73052300D01*
X135560000Y-71700000D02*
X135560000Y-72675300D01*
X136560000Y-70724700D02*
X136560000Y-69905100D01*
X136560000Y-71700000D02*
X136560000Y-70724700D01*
X137560000Y-70724700D02*
X138740800Y-70724700D01*
X137560000Y-71700000D02*
X137560000Y-70724700D01*
X162890000Y-71700000D02*
X162120700Y-71700000D01*
X163390000Y-72675300D02*
X162517400Y-72675300D01*
X162517400Y-72675300D02*
X157385300Y-77807400D01*
X157385300Y-77807400D02*
X157385300Y-78105000D01*
X156210000Y-78105000D02*
X157385300Y-78105000D01*
X163390000Y-71700000D02*
X163390000Y-72675300D01*
X163890000Y-71700000D02*
X163890000Y-70433200D01*
X163890000Y-70433200D02*
X163889900Y-70433200D01*
X164390000Y-71700000D02*
X164390000Y-72675300D01*
X164390000Y-72675300D02*
X164179700Y-72675300D01*
X164179700Y-72675300D02*
X158750000Y-78105000D01*
X161290000Y-85725000D02*
X161290000Y-84549700D01*
X164890000Y-71700000D02*
X164890000Y-72827700D01*
X164890000Y-72827700D02*
X163773000Y-73944700D01*
X163773000Y-73944700D02*
X163551700Y-73944700D01*
X163551700Y-73944700D02*
X160114700Y-77381700D01*
X160114700Y-77381700D02*
X160114700Y-83374400D01*
X160114700Y-83374400D02*
X161290000Y-84549700D01*
X161290000Y-78105000D02*
X161290000Y-76929700D01*
X161290000Y-76929700D02*
X161498700Y-76929700D01*
X161498700Y-76929700D02*
X165390000Y-73038400D01*
X165390000Y-73038400D02*
X165390000Y-71700000D01*
X163830000Y-76929700D02*
X163830000Y-75872200D01*
X163830000Y-75872200D02*
X166390000Y-73312200D01*
X166390000Y-73312200D02*
X166390000Y-72675300D01*
X163830000Y-78105000D02*
X163830000Y-76929700D01*
X166390000Y-71700000D02*
X166390000Y-72675300D01*
X167390000Y-71700000D02*
X167390000Y-75909700D01*
X167390000Y-75909700D02*
X166370000Y-76929700D01*
X166370000Y-78105000D02*
X166370000Y-76929700D01*
X168390000Y-71700000D02*
X168376000Y-71714000D01*
X168376000Y-71714000D02*
X168376000Y-76395700D01*
X168376000Y-76395700D02*
X168910000Y-76929700D01*
X168910000Y-78105000D02*
X168910000Y-76929700D01*
X163830000Y-85725000D02*
X163830000Y-84549700D01*
X165890000Y-71700000D02*
X165890000Y-73175300D01*
X165890000Y-73175300D02*
X162654700Y-76410600D01*
X162654700Y-76410600D02*
X162654700Y-83374400D01*
X162654700Y-83374400D02*
X163830000Y-84549700D01*
X166370000Y-84549700D02*
X165194700Y-83374400D01*
X165194700Y-83374400D02*
X165194700Y-75144400D01*
X165194700Y-75144400D02*
X166890000Y-73449100D01*
X166890000Y-73449100D02*
X166890000Y-71700000D01*
X166370000Y-85725000D02*
X166370000Y-84549700D01*
X168910000Y-85725000D02*
X168910000Y-84549700D01*
X167890000Y-71700000D02*
X167890000Y-76046600D01*
X167890000Y-76046600D02*
X167734700Y-76201900D01*
X167734700Y-76201900D02*
X167734700Y-83374400D01*
X167734700Y-83374400D02*
X168910000Y-84549700D01*
X168890000Y-71700000D02*
X168890000Y-72572200D01*
X168890000Y-72572200D02*
X168826300Y-72635900D01*
X168826300Y-72635900D02*
X168826300Y-75436900D01*
X168826300Y-75436900D02*
X170274700Y-76885300D01*
X170274700Y-76885300D02*
X170274700Y-83374400D01*
X170274700Y-83374400D02*
X171450000Y-84549700D01*
X171450000Y-85725000D02*
X171450000Y-84549700D01*
X169390000Y-71700000D02*
X169390000Y-72709100D01*
X169390000Y-72709100D02*
X169276600Y-72822500D01*
X169276600Y-72822500D02*
X169276600Y-75250300D01*
X169276600Y-75250300D02*
X170956000Y-76929700D01*
X170956000Y-76929700D02*
X171450000Y-76929700D01*
X171450000Y-78105000D02*
X171450000Y-76929700D01*
X169890000Y-71700000D02*
X169890000Y-72846000D01*
X169890000Y-72846000D02*
X169726900Y-73009100D01*
X169726900Y-73009100D02*
X169726900Y-74674900D01*
X169726900Y-74674900D02*
X170036700Y-74984700D01*
X170390000Y-71700000D02*
X170390000Y-72982900D01*
X170390000Y-72982900D02*
X170177200Y-73195700D01*
X170177200Y-73195700D02*
X170177200Y-73869000D01*
X170177200Y-73869000D02*
X173237900Y-76929700D01*
X173237900Y-76929700D02*
X173990000Y-76929700D01*
X173990000Y-78105000D02*
X173990000Y-76929700D01*
X170890000Y-72675300D02*
X170902500Y-72687800D01*
X170902500Y-72687800D02*
X170902500Y-73551100D01*
X170890000Y-71700000D02*
X170890000Y-72675300D01*
X171390000Y-71700000D02*
X171390000Y-73012700D01*
X171390000Y-73012700D02*
X171989600Y-73612300D01*
X171989600Y-73612300D02*
X171989600Y-74195100D01*
X171989600Y-74195100D02*
X175354700Y-77560200D01*
X175354700Y-77560200D02*
X175354700Y-78105000D01*
X176530000Y-78105000D02*
X175354700Y-78105000D01*
X171890000Y-71700000D02*
X171890000Y-72875700D01*
X171890000Y-72875700D02*
X172714900Y-73700600D01*
X179070000Y-78105000D02*
X177894700Y-78105000D01*
X172390000Y-71700000D02*
X172390000Y-72675300D01*
X172390000Y-72675300D02*
X172762600Y-72675300D01*
X172762600Y-72675300D02*
X177894700Y-77807400D01*
X177894700Y-77807400D02*
X177894700Y-78105000D01*
M02*
