G04 #@! TF.GenerationSoftware,KiCad,Pcbnew,5.1.5-52549c5~86~ubuntu19.04.1*
G04 #@! TF.CreationDate,2020-05-12T21:37:58+10:00*
G04 #@! TF.ProjectId,ICM2_FrontPanel_Breakout,49434d32-5f46-4726-9f6e-7450616e656c,rev?*
G04 #@! TF.SameCoordinates,Original*
G04 #@! TF.FileFunction,Copper,L2,Bot*
G04 #@! TF.FilePolarity,Positive*
%FSLAX46Y46*%
G04 Gerber Fmt 4.6, Leading zero omitted, Abs format (unit mm)*
G04 Created by KiCad (PCBNEW 5.1.5-52549c5~86~ubuntu19.04.1) date 2020-05-12 21:37:58*
%MOMM*%
%LPD*%
G04 APERTURE LIST*
%ADD10O,1.700000X1.700000*%
%ADD11R,1.700000X1.700000*%
%ADD12C,0.800000*%
%ADD13C,0.250000*%
G04 APERTURE END LIST*
D10*
X156210000Y-85725000D03*
X158750000Y-85725000D03*
X161290000Y-85725000D03*
X163830000Y-85725000D03*
X166370000Y-85725000D03*
X168910000Y-85725000D03*
X171450000Y-85725000D03*
X173990000Y-85725000D03*
X176530000Y-85725000D03*
D11*
X179070000Y-85725000D03*
D10*
X156210000Y-78105000D03*
X158750000Y-78105000D03*
X161290000Y-78105000D03*
X163830000Y-78105000D03*
X166370000Y-78105000D03*
X168910000Y-78105000D03*
X171450000Y-78105000D03*
X173990000Y-78105000D03*
X176530000Y-78105000D03*
D11*
X179070000Y-78105000D03*
D10*
X113030000Y-85725000D03*
X115570000Y-85725000D03*
X118110000Y-85725000D03*
X120650000Y-85725000D03*
X123190000Y-85725000D03*
X125730000Y-85725000D03*
X128270000Y-85725000D03*
X130810000Y-85725000D03*
X133350000Y-85725000D03*
X135890000Y-85725000D03*
X138430000Y-85725000D03*
X140970000Y-85725000D03*
X143510000Y-85725000D03*
X146050000Y-85725000D03*
D11*
X148590000Y-85725000D03*
D10*
X113030000Y-78105000D03*
X115570000Y-78105000D03*
X118110000Y-78105000D03*
X120650000Y-78105000D03*
X123190000Y-78105000D03*
X125730000Y-78105000D03*
X128270000Y-78105000D03*
X130810000Y-78105000D03*
X133350000Y-78105000D03*
X135890000Y-78105000D03*
X138430000Y-78105000D03*
X140970000Y-78105000D03*
X143510000Y-78105000D03*
X146050000Y-78105000D03*
D11*
X148590000Y-78105000D03*
D12*
X122788900Y-71908900D03*
X125798300Y-70426600D03*
X126887200Y-70421600D03*
X128060000Y-72954100D03*
X135615400Y-70435700D03*
X137794200Y-74175500D03*
X126687500Y-74546100D03*
X127936200Y-70320500D03*
X128985200Y-70419600D03*
X135402900Y-73052300D03*
X136560000Y-69905100D03*
X138740800Y-70724700D03*
X162120700Y-71700000D03*
X163889900Y-70433200D03*
X170036700Y-74984700D03*
X170902500Y-73551100D03*
X172714900Y-73700600D03*
D13*
X122788900Y-71908900D02*
X122788900Y-73010100D01*
X122788900Y-73010100D02*
X119263600Y-76535400D01*
X119263600Y-76535400D02*
X115407600Y-76535400D01*
X115407600Y-76535400D02*
X114205300Y-77737700D01*
X114205300Y-77737700D02*
X114205300Y-78105000D01*
X113030000Y-78105000D02*
X114205300Y-78105000D01*
X125798300Y-70426600D02*
X125798200Y-70426600D01*
X125798200Y-70426600D02*
X125798200Y-70654100D01*
X125798200Y-70654100D02*
X119285300Y-77167000D01*
X119285300Y-77167000D02*
X119285300Y-78105000D01*
X118110000Y-78105000D02*
X119285300Y-78105000D01*
X126887200Y-70421600D02*
X120650000Y-76658800D01*
X120650000Y-76658800D02*
X120650000Y-76929700D01*
X120650000Y-78105000D02*
X120650000Y-76929700D01*
X128060000Y-72954100D02*
X126604200Y-72954100D01*
X126604200Y-72954100D02*
X123190000Y-76368300D01*
X123190000Y-76368300D02*
X123190000Y-76929700D01*
X123190000Y-78105000D02*
X123190000Y-76929700D01*
X139794700Y-78105000D02*
X139794700Y-77202200D01*
X139794700Y-77202200D02*
X136940500Y-74348000D01*
X136940500Y-74348000D02*
X136940500Y-71760800D01*
X136940500Y-71760800D02*
X135615400Y-70435700D01*
X140970000Y-78105000D02*
X139794700Y-78105000D01*
X143510000Y-78105000D02*
X142334700Y-78105000D01*
X142334700Y-78105000D02*
X142334700Y-77748200D01*
X142334700Y-77748200D02*
X138762000Y-74175500D01*
X138762000Y-74175500D02*
X137794200Y-74175500D01*
X121825300Y-85725000D02*
X121825300Y-86092400D01*
X121825300Y-86092400D02*
X122633200Y-86900300D01*
X122633200Y-86900300D02*
X126232900Y-86900300D01*
X126232900Y-86900300D02*
X126915900Y-86217300D01*
X126915900Y-86217300D02*
X126915900Y-74774500D01*
X126915900Y-74774500D02*
X126687500Y-74546100D01*
X120650000Y-85725000D02*
X121825300Y-85725000D01*
X123190000Y-85725000D02*
X123190000Y-84549700D01*
X127936200Y-70320500D02*
X127936200Y-70453300D01*
X127936200Y-70453300D02*
X122014700Y-76374800D01*
X122014700Y-76374800D02*
X122014700Y-83374400D01*
X122014700Y-83374400D02*
X123190000Y-84549700D01*
X125730000Y-84549700D02*
X124539400Y-83359100D01*
X124539400Y-83359100D02*
X124539400Y-75661200D01*
X124539400Y-75661200D02*
X126452100Y-73748500D01*
X126452100Y-73748500D02*
X128329500Y-73748500D01*
X128329500Y-73748500D02*
X128985200Y-73092800D01*
X128985200Y-73092800D02*
X128985200Y-70419600D01*
X125730000Y-85725000D02*
X125730000Y-84549700D01*
X143510000Y-84549700D02*
X143120000Y-84549700D01*
X143120000Y-84549700D02*
X137160000Y-78589700D01*
X137160000Y-78589700D02*
X137160000Y-75950300D01*
X137160000Y-75950300D02*
X135402900Y-74193200D01*
X135402900Y-74193200D02*
X135402900Y-73052300D01*
X143510000Y-85725000D02*
X143510000Y-84549700D01*
X144874700Y-85725000D02*
X144874700Y-86092300D01*
X144874700Y-86092300D02*
X144044900Y-86922100D01*
X144044900Y-86922100D02*
X140436300Y-86922100D01*
X140436300Y-86922100D02*
X139700000Y-86185800D01*
X139700000Y-86185800D02*
X139700000Y-83633600D01*
X139700000Y-83633600D02*
X134671800Y-78605400D01*
X134671800Y-78605400D02*
X134671800Y-70319800D01*
X134671800Y-70319800D02*
X135296200Y-69695400D01*
X135296200Y-69695400D02*
X136350300Y-69695400D01*
X136350300Y-69695400D02*
X136560000Y-69905100D01*
X146050000Y-85725000D02*
X144874700Y-85725000D01*
X148590000Y-84549700D02*
X144780000Y-80739700D01*
X144780000Y-80739700D02*
X144780000Y-77652500D01*
X144780000Y-77652500D02*
X143795300Y-76667800D01*
X143795300Y-76667800D02*
X142494800Y-76667800D01*
X142494800Y-76667800D02*
X138740800Y-72913800D01*
X138740800Y-72913800D02*
X138740800Y-70724700D01*
X148590000Y-85725000D02*
X148590000Y-84549700D01*
X162120700Y-71700000D02*
X162120700Y-73083800D01*
X162120700Y-73083800D02*
X158509500Y-76695000D01*
X158509500Y-76695000D02*
X158392500Y-76695000D01*
X158392500Y-76695000D02*
X157385300Y-77702200D01*
X157385300Y-77702200D02*
X157385300Y-83374400D01*
X157385300Y-83374400D02*
X156210000Y-84549700D01*
X156210000Y-85725000D02*
X156210000Y-84549700D01*
X158750000Y-85725000D02*
X158750000Y-84549700D01*
X158750000Y-84549700D02*
X159925300Y-83374400D01*
X159925300Y-83374400D02*
X159925300Y-76117000D01*
X159925300Y-76117000D02*
X163889900Y-72152400D01*
X163889900Y-72152400D02*
X163889900Y-70433200D01*
X173990000Y-84549700D02*
X170140000Y-80699700D01*
X170140000Y-80699700D02*
X170140000Y-75088000D01*
X170140000Y-75088000D02*
X170036700Y-74984700D01*
X173990000Y-85725000D02*
X173990000Y-84549700D01*
X176530000Y-84549700D02*
X172720000Y-80739700D01*
X172720000Y-80739700D02*
X172720000Y-75368600D01*
X172720000Y-75368600D02*
X170902500Y-73551100D01*
X176530000Y-85725000D02*
X176530000Y-84549700D01*
X179070000Y-85725000D02*
X179070000Y-84549700D01*
X179070000Y-84549700D02*
X175260000Y-80739700D01*
X175260000Y-80739700D02*
X175260000Y-76245700D01*
X175260000Y-76245700D02*
X172714900Y-73700600D01*
M02*
